<?xml version="1.0" encoding="utf-8"?><svg id="Layer_1" data-name="Layer 1" xmlns="http://www.w3.org/2000/svg" viewBox="0 0 32 32"><defs><style>.cls-1{fill:#c8e5ff;fill-rule:evenodd;}</style></defs><path class="cls-1" d="M12.49,9.75a1,1,0,0,0-1.37,0L9.75,11.11a1,1,0,0,0,0,1.37l1.37,1.37a1,1,0,0,1,0,1.37L9.76,16.58a1,1,0,0,1-1.37,0L7,15.21a1,1,0,0,0-1.37,0L4.29,16.58a1,1,0,0,0,0,1.37l1.37,1.37a1,1,0,0,1,0,1.36L4.29,22.05a1,1,0,0,0,0,1.37l1.36,1.37a1,1,0,0,0,1.37,0l1.37-1.37a1,1,0,0,1,1.37,0l1.36,1.36a1,1,0,0,1,0,1.37L9.75,27.52a1,1,0,0,0,0,1.37l1.37,1.36a1,1,0,0,0,1.37,0l1.37-1.37a1,1,0,0,1,1.36,0l1.37,1.37a1,1,0,0,1,0,1.36L15.22,33a1,1,0,0,0,0,1.37l1.37,1.37a1,1,0,0,0,1.36,0l1.37-1.37a1,1,0,0,1,1.37,0l1.36,1.36a1,1,0,0,0,1.37,0l1.37-1.37a1,1,0,0,0,0-1.36l-1.37-1.37a1,1,0,0,1,0-1.36l1.37-1.37a1,1,0,0,1,1.37,0l1.36,1.36a1,1,0,0,0,1.37,0l1.36-1.36a1,1,0,0,0,0-1.37l-1.36-1.36a1,1,0,0,1,0-1.37l1.36-1.36a1,1,0,0,1,1.37,0L33,24.78a1,1,0,0,0,1.36,0l1.37-1.37a1,1,0,0,0,0-1.36l-1.37-1.37a1,1,0,0,1,0-1.36L35.72,18a1,1,0,0,0,0-1.36l-1.37-1.37a1,1,0,0,0-1.36,0l-1.37,1.36a1,1,0,0,1-1.37,0l-1.36-1.36a1,1,0,0,1,0-1.37l1.36-1.36a1,1,0,0,0,0-1.37L28.89,9.76a1,1,0,0,0-1.37,0l-1.36,1.36a1,1,0,0,1-1.37,0L23.42,9.75a1,1,0,0,1,0-1.36L24.79,7a1,1,0,0,0,0-1.36L23.42,4.29a1,1,0,0,0-1.37,0L20.69,5.65a1,1,0,0,1-1.37,0L18,4.28a1,1,0,0,0-1.36,0L15.22,5.65a1,1,0,0,0,0,1.37l1.37,1.37a1,1,0,0,1,0,1.36l-1.37,1.37a1,1,0,0,1-1.36,0Zm15,10.93a1,1,0,0,0,0-1.36L26.16,18a1,1,0,0,0-1.37,0l-1.37,1.37a1,1,0,0,0,0,1.36l1.37,1.37a1,1,0,0,0,1.37,0Zm-5.46,5.47a1,1,0,0,0,0-1.37l-1.37-1.36a1,1,0,0,0-1.37,0L18,24.78a1,1,0,0,0,0,1.37l1.36,1.37a1,1,0,0,0,1.37,0Zm-9.57-5.47a1,1,0,0,1,0-1.36L13.86,18a1,1,0,0,1,1.36,0l1.37,1.37a1,1,0,0,1,0,1.36l-1.37,1.37a1,1,0,0,1-1.36,0ZM18,15.22a1,1,0,0,1,0-1.37l1.36-1.37a1,1,0,0,1,1.37,0l1.37,1.37a1,1,0,0,1,0,1.37l-1.37,1.36a1,1,0,0,1-1.37,0Z" transform="translate(-4 -4)"/></svg>