<svg width="24" height="24" viewBox="0 0 24 24" fill="none" xmlns="http://www.w3.org/2000/svg">
<g clip-path="url(#clip0_1141_1374)">
<g clip-path="url(#clip1_1141_1374)">
<g clip-path="url(#clip2_1141_1374)">
<path d="M12.0005 0.480469C5.63855 0.480469 0.480469 5.63855 0.480469 12.0005C0.480469 18.3624 5.63855 23.5205 12.0005 23.5205C18.3624 23.5205 23.5205 18.3624 23.5205 12.0005C23.5205 5.63855 18.3624 0.480469 12.0005 0.480469ZM16.5192 15.1617C16.8945 15.5371 16.8945 16.1438 16.5192 16.5192C16.332 16.7064 16.0862 16.8005 15.8405 16.8005C15.5947 16.8005 15.3489 16.7064 15.1617 16.5192L12.0005 13.3579L8.83919 16.5192C8.65199 16.7064 8.40623 16.8005 8.16047 16.8005C7.91471 16.8005 7.66895 16.7064 7.48175 16.5192C7.10639 16.1438 7.10639 15.5371 7.48175 15.1617L10.643 12.0005L7.48175 8.83919C7.10639 8.46383 7.10639 7.85711 7.48175 7.48175C7.85711 7.10639 8.46383 7.10639 8.83919 7.48175L12.0005 10.643L15.1617 7.48175C15.5371 7.10639 16.1438 7.10639 16.5192 7.48175C16.8945 7.85711 16.8945 8.46383 16.5192 8.83919L13.3579 12.0005L16.5192 15.1617Z" fill="#E55592"/>
</g>
</g>
</g>
<defs>
<clipPath id="clip0_1141_1374">
<rect width="24" height="24" fill="white"/>
</clipPath>
<clipPath id="clip1_1141_1374">
<rect width="24" height="24" fill="white"/>
</clipPath>
<clipPath id="clip2_1141_1374">
<rect width="24" height="24" fill="white"/>
</clipPath>
</defs>
</svg>
