<svg width="22" height="22" viewBox="0 0 22 22" fill="none" xmlns="http://www.w3.org/2000/svg">
<path fill-rule="evenodd" clip-rule="evenodd" d="M3.87422 4.65631C3.87422 5.08797 4.22416 5.4379 4.6558 5.4379C5.08743 5.4379 5.43737 5.08797 5.43737 4.65631C5.43737 4.22464 5.08743 3.87471 4.6558 3.87471C4.22416 3.87471 3.87422 4.22464 3.87422 4.65631ZM4.6558 3.14307C3.82007 3.14307 3.14258 3.82058 3.14258 4.65631C3.14258 5.49204 3.82007 6.16955 4.6558 6.16955C5.49153 6.16955 6.16902 5.49204 6.16902 4.65631C6.16902 3.82058 5.49153 3.14307 4.6558 3.14307Z" fill="white"/>
<path fill-rule="evenodd" clip-rule="evenodd" d="M3.87422 10.6099C3.87422 11.0416 4.22416 11.3915 4.6558 11.3915C5.08744 11.3915 5.43738 11.0416 5.43738 10.6099C5.43738 10.1783 5.08744 9.82833 4.6558 9.82833C4.22416 9.82833 3.87422 10.1783 3.87422 10.6099ZM4.6558 9.09668C3.82007 9.09668 3.14258 9.77419 3.14258 10.6099C3.14258 11.4457 3.82007 12.1232 4.6558 12.1232C5.49153 12.1232 6.16902 11.4457 6.16902 10.6099C6.16902 9.77419 5.49153 9.09668 4.6558 9.09668Z" fill="white"/>
<path fill-rule="evenodd" clip-rule="evenodd" d="M3.87422 16.564C3.87422 16.9957 4.22416 17.3456 4.6558 17.3456C5.08744 17.3456 5.43738 16.9957 5.43738 16.564C5.43738 16.1324 5.08744 15.7824 4.6558 15.7824C4.22416 15.7824 3.87422 16.1324 3.87422 16.564ZM4.6558 15.0508C3.82007 15.0508 3.14258 15.7283 3.14258 16.564C3.14258 17.3998 3.82007 18.0773 4.6558 18.0773C5.49153 18.0773 6.16902 17.3998 6.16902 16.564C6.16902 15.7283 5.49153 15.0508 4.6558 15.0508Z" fill="white"/>
<path fill-rule="evenodd" clip-rule="evenodd" d="M19.9046 5.1277H7.79883V4.08008H19.9046V5.1277Z" fill="white"/>
<path fill-rule="evenodd" clip-rule="evenodd" d="M19.9046 5.1277H7.79883V4.08008H19.9046V5.1277Z" fill="white"/>
<path fill-rule="evenodd" clip-rule="evenodd" d="M19.9046 11.0813H7.79883V10.0337H19.9046V11.0813Z" fill="white"/>
<path fill-rule="evenodd" clip-rule="evenodd" d="M19.9046 11.0813H7.79883V10.0337H19.9046V11.0813Z" fill="white"/>
<path fill-rule="evenodd" clip-rule="evenodd" d="M19.9046 17.0354H7.79883V15.9878H19.9046V17.0354Z" fill="white"/>
<path fill-rule="evenodd" clip-rule="evenodd" d="M19.9046 17.0354H7.79883V15.9878H19.9046V17.0354Z" fill="white"/>
</svg>
