<svg width="22" height="22" viewBox="0 0 22 22" fill="none" xmlns="http://www.w3.org/2000/svg">
<path d="M9.1872 10.1937L8.76815 10.1937L9.1872 10.1937ZM12.8132 10.1936L12.3941 10.1936L12.8132 10.1936ZM12.8135 18.8569L13.2326 18.8569C13.2326 18.9681 13.1884 19.0746 13.1099 19.1532C13.0313 19.2318 12.9247 19.276 12.8135 19.276V18.8569ZM9.18755 18.8569V19.276C8.95612 19.276 8.76851 19.0884 8.7685 18.857L9.18755 18.8569ZM6.76898 18.8569H7.18803C7.18803 19.0883 7.00042 19.2759 6.76898 19.2759V18.8569ZM3.14258 18.8569V19.2759C2.91114 19.2759 2.72353 19.0883 2.72353 18.8569H3.14258ZM18.8578 18.8569H19.2769C19.2769 19.0884 19.0892 19.276 18.8578 19.276V18.8569ZM15.2314 18.8569V19.276C15 19.276 14.8123 19.0884 14.8123 18.8569H15.2314ZM11.0002 8.7997C10.2303 8.7997 9.60622 9.42382 9.60625 10.1937L8.76815 10.1937C8.7681 8.96098 9.76743 7.9616 11.0002 7.9616V8.7997ZM12.3941 10.1936C12.3941 9.42376 11.77 8.7997 11.0002 8.7997V7.9616C12.2329 7.9616 13.2322 8.96087 13.2322 10.1936L12.3941 10.1936ZM12.3945 18.857L12.3941 10.1936L13.2322 10.1936L13.2326 18.8569L12.3945 18.857ZM9.18755 18.4379H12.8135V19.276H9.18755V18.4379ZM9.60625 10.1937L9.6066 18.8569L8.7685 18.857L8.76815 10.1937L9.60625 10.1937ZM7.18803 14.3843V18.8569H6.34993V14.3843H7.18803ZM4.95578 12.152C6.18862 12.152 7.18803 13.1515 7.18803 14.3843H6.34993C6.34993 13.6143 5.72575 12.9901 4.95578 12.9901V12.152ZM2.72353 14.3843C2.72353 13.1515 3.72294 12.152 4.95578 12.152V12.9901C4.18581 12.9901 3.56163 13.6143 3.56163 14.3843H2.72353ZM2.72353 18.8569V14.3843H3.56163V18.8569H2.72353ZM6.76898 19.2759H3.14258V18.4378H6.76898V19.2759ZM18.4388 18.8569V4.95571H19.2769V18.8569H18.4388ZM15.2314 18.4379H18.8578V19.276H15.2314V18.4379ZM15.6504 4.95571V18.8569H14.8123V4.95571H15.6504ZM17.0446 3.56156C16.2746 3.56156 15.6504 4.18575 15.6504 4.95571H14.8123C14.8123 3.72288 15.8118 2.72346 17.0446 2.72346V3.56156ZM18.4388 4.95571C18.4388 4.18574 17.8146 3.56156 17.0446 3.56156V2.72346C18.2774 2.72346 19.2769 3.72287 19.2769 4.95571H18.4388Z" fill="white"/>
</svg>
