<svg width="25" height="25" viewBox="0 0 25 25" fill="none" xmlns="http://www.w3.org/2000/svg">
<path d="M12.3945 0.0888672C5.77774 0.0888672 0.394531 5.47195 0.394531 12.0888C0.394531 18.7057 5.77774 24.0889 12.3945 24.0889C19.0112 24.0889 24.3944 18.7057 24.3944 12.0888C24.3944 5.47195 19.0113 0.0888672 12.3945 0.0888672ZM19.285 10.0619L11.7461 17.6009C11.4255 17.9214 10.9994 18.0979 10.5461 18.0979C10.0929 18.0979 9.66674 17.9214 9.34618 17.6009L5.50389 13.7586C5.18334 13.438 5.00678 13.0119 5.00678 12.5586C5.00678 12.1052 5.18334 11.6791 5.50389 11.3585C5.82432 11.038 6.25044 10.8614 6.70385 10.8614C7.15714 10.8614 7.58337 11.038 7.90381 11.3587L10.546 14.0007L16.8849 7.66188C17.2054 7.34132 17.6316 7.16489 18.0848 7.16489C18.5381 7.16489 18.9642 7.34132 19.2848 7.66188C19.9467 8.32377 19.9467 9.40027 19.285 10.0619Z" fill="#51E1CA"/>
</svg>
