<svg width="22" height="21" viewBox="0 0 22 21" fill="none" xmlns="http://www.w3.org/2000/svg">
<g clip-path="url(#clip0_441_297)">
<path d="M15.5893 17.9153H6.57657C4.96998 17.9153 3.66733 16.6131 3.66733 15.0061V5.99371C3.66733 4.38713 4.96957 3.08447 6.57657 3.08447H15.5893C17.1959 3.08447 18.4986 4.38672 18.4986 5.99371V15.0065C18.4982 16.6131 17.1959 17.9153 15.5893 17.9153Z" fill="white"/>
<path d="M7.59329 14.25H6.05541L8.39868 7.46212H10.2481L12.5881 14.25H11.0502L9.34992 9.01326H9.29689L7.59329 14.25ZM7.49717 11.5819H11.1297V12.7022H7.49717V11.5819ZM14.8402 7.46212V14.25H13.4051V7.46212H14.8402Z" fill="white"/>
<path d="M7.19272 1.88953H6.78256V3.38988H7.19272V1.88953Z" fill="white"/>
<path d="M6.98793 2.33413C7.28263 2.33413 7.52154 2.09523 7.52154 1.80052C7.52154 1.50581 7.28263 1.26691 6.98793 1.26691C6.69322 1.26691 6.45432 1.50581 6.45432 1.80052C6.45432 2.09523 6.69322 2.33413 6.98793 2.33413Z" fill="white"/>
<path d="M9.9234 0.622192H9.51324V3.97317H9.9234V0.622192Z" fill="white"/>
<path d="M9.71834 1.06723C10.013 1.06723 10.2519 0.82832 10.2519 0.533613C10.2519 0.238907 10.013 0 9.71834 0C9.42363 0 9.18472 0.238907 9.18472 0.533613C9.18472 0.82832 9.42363 1.06723 9.71834 1.06723Z" fill="white"/>
<path d="M12.6537 0.622192H12.2435V3.97317H12.6537V0.622192Z" fill="white"/>
<path d="M12.448 1.06723C12.7427 1.06723 12.9816 0.82832 12.9816 0.533613C12.9816 0.238907 12.7427 0 12.448 0C12.1533 0 11.9144 0.238907 11.9144 0.533613C11.9144 0.82832 12.1533 1.06723 12.448 1.06723Z" fill="white"/>
<path d="M15.3841 1.88953H14.974V3.38988H15.3841V1.88953Z" fill="white"/>
<path d="M15.1785 2.33419C15.4732 2.33419 15.7121 2.09529 15.7121 1.80058C15.7121 1.50587 15.4732 1.26697 15.1785 1.26697C14.8838 1.26697 14.6449 1.50587 14.6449 1.80058C14.6449 2.09529 14.8838 2.33419 15.1785 2.33419Z" fill="white"/>
<path d="M7.19272 17.6101H6.78256V19.1105H7.19272V17.6101Z" fill="white"/>
<path d="M6.98793 19.7331C7.28263 19.7331 7.52154 19.4942 7.52154 19.1994C7.52154 18.9047 7.28263 18.6658 6.98793 18.6658C6.69322 18.6658 6.45432 18.9047 6.45432 19.1994C6.45432 19.4942 6.69322 19.7331 6.98793 19.7331Z" fill="white"/>
<path d="M9.9234 17.0267H9.51324V20.3777H9.9234V17.0267Z" fill="white"/>
<path d="M9.71834 21C10.013 21 10.2519 20.7611 10.2519 20.4664C10.2519 20.1716 10.013 19.9327 9.71834 19.9327C9.42363 19.9327 9.18472 20.1716 9.18472 20.4664C9.18472 20.7611 9.42363 21 9.71834 21Z" fill="white"/>
<path d="M12.6537 17.0267H12.2435V20.3777H12.6537V17.0267Z" fill="white"/>
<path d="M12.448 21C12.7427 21 12.9816 20.7611 12.9816 20.4664C12.9816 20.1716 12.7427 19.9327 12.448 19.9327C12.1533 19.9327 11.9144 20.1716 11.9144 20.4664C11.9144 20.7611 12.1533 21 12.448 21Z" fill="white"/>
<path d="M15.3841 17.6101H14.974V19.1105H15.3841V17.6101Z" fill="white"/>
<path d="M15.1785 19.733C15.4732 19.733 15.7121 19.4941 15.7121 19.1994C15.7121 18.9047 15.4732 18.6658 15.1785 18.6658C14.8838 18.6658 14.6449 18.9047 14.6449 19.1994C14.6449 19.4941 14.8838 19.733 15.1785 19.733Z" fill="white"/>
<path d="M3.97331 14.3904H2.47296V14.8005H3.97331V14.3904Z" fill="white"/>
<path d="M2.38356 15.129C2.67826 15.129 2.91717 14.8901 2.91717 14.5954C2.91717 14.3007 2.67826 14.0618 2.38356 14.0618C2.08885 14.0618 1.84995 14.3007 1.84995 14.5954C1.84995 14.8901 2.08885 15.129 2.38356 15.129Z" fill="white"/>
<path d="M4.55654 11.66H1.20557V12.0701H4.55654V11.66Z" fill="white"/>
<path d="M1.11696 12.3986C1.41166 12.3986 1.65057 12.1597 1.65057 11.865C1.65057 11.5703 1.41166 11.3314 1.11696 11.3314C0.82225 11.3314 0.583344 11.5703 0.583344 11.865C0.583344 12.1597 0.82225 12.3986 1.11696 12.3986Z" fill="white"/>
<path d="M4.55654 8.92987H1.20557V9.34003H4.55654V8.92987Z" fill="white"/>
<path d="M1.11696 9.66854C1.41166 9.66854 1.65057 9.42964 1.65057 9.13493C1.65057 8.84022 1.41166 8.60132 1.11696 8.60132C0.82225 8.60132 0.583344 8.84022 0.583344 9.13493C0.583344 9.42964 0.82225 9.66854 1.11696 9.66854Z" fill="white"/>
<path d="M3.97331 6.19946H2.47296V6.60962H3.97331V6.19946Z" fill="white"/>
<path d="M2.38356 6.9382C2.67826 6.9382 2.91717 6.69929 2.91717 6.40458C2.91717 6.10988 2.67826 5.87097 2.38356 5.87097C2.08885 5.87097 1.84995 6.10988 1.84995 6.40458C1.84995 6.69929 2.08885 6.9382 2.38356 6.9382Z" fill="white"/>
<path d="M19.694 14.3904H18.1937V14.8005H19.694V14.3904Z" fill="white"/>
<path d="M19.7828 15.1291C20.0775 15.1291 20.3164 14.8901 20.3164 14.5954C20.3164 14.3007 20.0775 14.0618 19.7828 14.0618C19.4881 14.0618 19.2491 14.3007 19.2491 14.5954C19.2491 14.8901 19.4881 15.1291 19.7828 15.1291Z" fill="white"/>
<path d="M20.9607 11.6599H17.6097V12.0701H20.9607V11.6599Z" fill="white"/>
<path d="M21.0497 12.3986C21.3444 12.3986 21.5833 12.1597 21.5833 11.865C21.5833 11.5703 21.3444 11.3314 21.0497 11.3314C20.755 11.3314 20.5161 11.5703 20.5161 11.865C20.5161 12.1597 20.755 12.3986 21.0497 12.3986Z" fill="white"/>
<path d="M20.9607 8.92993H17.6097V9.34009H20.9607V8.92993Z" fill="white"/>
<path d="M21.0497 9.66854C21.3444 9.66854 21.5833 9.42964 21.5833 9.13493C21.5833 8.84022 21.3444 8.60132 21.0497 8.60132C20.755 8.60132 20.5161 8.84022 20.5161 9.13493C20.5161 9.42964 20.755 9.66854 21.0497 9.66854Z" fill="white"/>
<path d="M19.694 6.19946H18.1937V6.60962H19.694V6.19946Z" fill="white"/>
<path d="M19.7828 6.93814C20.0775 6.93814 20.3164 6.69923 20.3164 6.40452C20.3164 6.10982 20.0775 5.87091 19.7828 5.87091C19.4881 5.87091 19.2491 6.10982 19.2491 6.40452C19.2491 6.69923 19.4881 6.93814 19.7828 6.93814Z" fill="white"/>
</g>
<defs>
<clipPath id="clip0_441_297">
<rect width="21" height="21" fill="white" transform="translate(0.583344)"/>
</clipPath>
</defs>
</svg>
