<?xml version="1.0"?>
<svg xmlns="http://www.w3.org/2000/svg" xmlns:xlink="http://www.w3.org/1999/xlink" xmlns:svgjs="http://svgjs.com/svgjs" version="1.1" width="23" height="21" x="0" y="0" viewBox="0 0 128 128" style="enable-background:new 0 0 512 512" xml:space="preserve" class=""><g><path xmlns="http://www.w3.org/2000/svg" d="m126 31h-20v-6a11 11 0 0 0 -22 0v6h-42a2 2 0 0 0 -2 2v7a7 7 0 0 1 -14 0v-7a2 2 0 0 0 -2-2h-22a2 2 0 0 0 -2 2v62a2 2 0 0 0 2 2h20v6a11 11 0 0 0 22 0v-6h42a2 2 0 0 0 2-2v-7a7 7 0 0 1 14 0v7a2 2 0 0 0 2 2h22a2 2 0 0 0 2-2v-62a2 2 0 0 0 -2-2zm-84 62a2 2 0 0 0 -2 2v8a7 7 0 0 1 -14 0v-8a2 2 0 0 0 -2-2h-20v-58h18v5a11 11 0 0 0 22 0v-5h18v18h-5a11 11 0 0 0 0 22h5v18zm82 0h-18v-5a11 11 0 0 0 -22 0v5h-18v-20a2 2 0 0 0 -2-2h-7a7 7 0 0 1 0-14h7a2 2 0 0 0 2-2v-20h20a2 2 0 0 0 2-2v-8a7 7 0 0 1 14 0v8a2 2 0 0 0 2 2h20z" fill="#ffffff" data-original="#000000" class=""/></g></svg>

