<svg version="1.0" xmlns="http://www.w3.org/2000/svg"
width="100.000000pt" height="100.000000pt" viewBox="0 0 100.000000 100.000000"
 preserveAspectRatio="xMidYMid meet">

<g transform="translate(0.000000,100.000000) scale(0.100000,-0.100000)"
fill="#ffffff" stroke="none">
<path d="M405 846 c-107 -34 -186 -102 -232 -201 -24 -51 -28 -73 -28 -145 0
-72 4 -94 28 -146 130 -282 522 -281 654 1 24 51 28 73 28 145 0 72 -4 94 -28
145 -30 65 -81 124 -138 160 -78 50 -199 68 -284 41z m230 -57 c63 -30 124
-90 155 -154 34 -72 34 -198 0 -270 -31 -64 -91 -124 -155 -155 -72 -34 -198
-34 -270 0 -260 126 -238 495 35 594 63 23 170 16 235 -15z"/>
<path d="M480 702 c0 -10 -17 -29 -37 -43 -41 -26 -59 -63 -50 -100 12 -42 24
-51 93 -74 85 -27 108 -57 81 -99 -24 -36 -93 -37 -125 -3 -12 13 -22 29 -22
35 0 7 -9 12 -21 12 -18 0 -20 -4 -15 -27 7 -31 58 -83 81 -83 8 0 15 -9 15
-20 0 -13 7 -20 20 -20 13 0 20 7 20 18 0 11 13 23 35 31 21 7 41 24 50 41 36
69 5 120 -86 146 -70 20 -98 49 -79 83 25 48 70 52 112 11 17 -17 36 -30 44
-28 23 5 -12 68 -46 81 -21 8 -30 18 -30 34 0 16 -6 23 -20 23 -13 0 -20 -7
-20 -18z"/>
</g>
</svg>
