<?xml version="1.0" standalone="no"?>
<!DOCTYPE svg PUBLIC "-//W3C//DTD SVG 20010904//EN"
 "http://www.w3.org/TR/2001/REC-SVG-20010904/DTD/svg10.dtd">
<svg version="1.1" xmlns="http://www.w3.org/2000/svg" xmlns:xlink="http://www.w3.org/1999/xlink" width="30px" height="30px" viewBox="0,0,256,256"><g fill="#b7b7b7" fill-rule="nonzero" stroke="none" stroke-width="1" stroke-linecap="butt" stroke-linejoin="miter" stroke-miterlimit="10" stroke-dasharray="" stroke-dashoffset="0" font-family="none" font-weight="none" font-size="none" text-anchor="none" style="mix-blend-mode: normal"><g transform="scale(8.53333,8.53333)"><path d="M15,3c-6.627,0 -12,5.373 -12,12c0,6.627 5.373,12 12,12c6.627,0 12,-5.373 12,-12c0,-6.627 -5.373,-12 -12,-12zM19.707,18.293c0.391,0.391 0.391,1.023 0,1.414c-0.195,0.195 -0.451,0.293 -0.707,0.293c-0.256,0 -0.512,-0.098 -0.707,-0.293l-3.293,-3.293l-3.293,3.293c-0.195,0.195 -0.451,0.293 -0.707,0.293c-0.256,0 -0.512,-0.098 -0.707,-0.293c-0.391,-0.391 -0.391,-1.023 0,-1.414l3.293,-3.293l-3.293,-3.293c-0.391,-0.391 -0.391,-1.023 0,-1.414c0.391,-0.391 1.023,-0.391 1.414,0l3.293,3.293l3.293,-3.293c0.391,-0.391 1.023,-0.391 1.414,0c0.391,0.391 0.391,1.023 0,1.414l-3.293,3.293z"></path></g></g></svg>
