<?xml version="1.0" encoding="UTF-8" standalone="no" ?>
<!DOCTYPE svg PUBLIC "-//W3C//DTD SVG 1.1//EN" "http://www.w3.org/Graphics/SVG/1.1/DTD/svg11.dtd">
<svg xmlns="http://www.w3.org/2000/svg" xmlns:xlink="http://www.w3.org/1999/xlink" version="1.1" width="1080" height="1080" viewBox="0 0 1080 1080" xml:space="preserve">
<desc>Created with Fabric.js 5.2.4</desc>
<defs>
</defs>
<rect x="0" y="0" width="100%" height="100%" fill="transparent"></rect>
<g transform="matrix(1 0 0 1 540 540)" id="eab21e60-b836-41b4-8ce1-c5ba8443d16b"  >
<rect style="stroke: none; stroke-width: 1; stroke-dasharray: none; stroke-linecap: butt; stroke-dashoffset: 0; stroke-linejoin: miter; stroke-miterlimit: 4; fill: rgb(255,255,255); fill-rule: nonzero; opacity: 1; visibility: hidden;" vector-effect="non-scaling-stroke"  x="-540" y="-540" rx="0" ry="0" width="1080" height="1080" />
</g>
<g transform="matrix(1 0 0 1 540 540)" id="2de9b0bd-5aa3-46a5-936d-c86dde293661"  >
</g>
<g transform="matrix(2.08 0 0 2.08 540 676.43)"  >
<g style=""   >
		<g transform="matrix(1.03 0 0 1.03 -154.73 -141.3)"  >
<path style="stroke: none; stroke-width: 1; stroke-dasharray: none; stroke-linecap: butt; stroke-dashoffset: 0; stroke-linejoin: miter; stroke-miterlimit: 4; fill: rgb(255,255,255); fill-rule: nonzero; opacity: 1;" vector-effect="non-scaling-stroke"  transform=" translate(-98.11, -111.12)" d="M 98.113281 168.125 C 66.382812 168.125 40.570312 142.546875 40.570312 111.117188 C 40.570312 79.683594 66.382812 54.105469 98.113281 54.105469 C 129.839844 54.105469 155.648438 79.679688 155.648438 111.117188 C 155.648438 142.550781 129.839844 168.125 98.113281 168.125 z M 98.113281 70.105469 C 75.203125 70.105469 56.570312 88.503906 56.570312 111.117188 C 56.570312 133.726562 75.203125 152.125 98.113281 152.125 C 121.015625 152.125 139.648438 133.726562 139.648438 111.117188 C 139.648438 88.503906 121.015625 70.105469 98.113281 70.105469 z M 98.113281 70.105469" stroke-linecap="round" />
</g>
		<g transform="matrix(1.03 0 0 1.03 -173.46 6.11)"  >
<path style="stroke: none; stroke-width: 1; stroke-dasharray: none; stroke-linecap: butt; stroke-dashoffset: 0; stroke-linejoin: miter; stroke-miterlimit: 4; fill: rgb(255,255,255); fill-rule: nonzero; opacity: 1;" vector-effect="non-scaling-stroke"  transform=" translate(-79.96, -253.92)" d="M 121.261719 325.96875 L 20.910156 325.96875 C 9.378906 325.96875 0 316.648438 0 305.19140600000003 L 0 279.02343800000006 C 0 225.45312500000006 44.011719 181.86718800000006 98.113281 181.86718800000006 C 119.390625 181.86718800000006 139.644531 188.50781200000006 156.667969 201.06640600000006 C 160.222656 203.69140600000006 160.980469 208.69921900000006 158.355469 212.25781200000006 C 155.730469 215.80859400000006 150.726562 216.56640600000006 147.167969 213.94531200000006 C 132.914062 203.42968800000006 115.953125 197.86718800000006 98.113281 197.86718800000006 C 52.835938 197.86718800000006 16 234.27734400000006 16 279.02343800000006 L 16 305.19140600000003 C 16 307.824219 18.203125 309.96875000000006 20.910156 309.96875000000006 L 121.265625 309.96875000000006 C 125.679688 309.96875000000006 129.265625 313.55078100000003 129.265625 317.96875000000006 C 129.265625 322.38281200000006 125.679688 325.96875000000006 121.261719 325.96875000000006 z M 121.261719 325.96875" stroke-linecap="round" />
</g>
		<g transform="matrix(1.03 0 0 1.03 171.81 -0.14)"  >
<path style="stroke: none; stroke-width: 1; stroke-dasharray: none; stroke-linecap: butt; stroke-dashoffset: 0; stroke-linejoin: miter; stroke-miterlimit: 4; fill: rgb(255,255,255); fill-rule: nonzero; opacity: 1;" vector-effect="non-scaling-stroke"  transform=" translate(-414.44, -247.87)" d="M 475.089844 319.914062 L 374.73828100000003 319.914062 C 370.324219 319.914062 366.73828100000003 316.33203100000003 366.73828100000003 311.914062 C 366.73828100000003 307.5 370.324219 303.914062 374.73828100000003 303.914062 L 475.09375 303.914062 C 477.800781 303.914062 480.003906 301.773438 480.003906 299.140625 L 480.003906 272.97265600000003 C 480.003906 228.21875000000003 443.16796899999997 191.81640600000003 397.890625 191.81640600000003 C 378.98046899999997 191.81640600000003 360.51953100000003 198.32812500000003 345.90625 210.15625000000003 C 342.476562 212.93359400000003 337.44140600000003 212.40625000000003 334.65625 208.97265600000003 C 331.878906 205.53906200000003 332.402344 200.50000000000003 335.84375 197.71875000000003 C 353.29296899999997 183.59765600000003 375.328125 175.81640600000003 397.890625 175.81640600000003 C 451.98828100000003 175.81640600000003 496 219.39843800000003 496 272.97265600000003 L 496 299.140625 C 496 310.59375 486.62109399999997 319.914062 475.08984399999997 319.914062 z M 475.089844 319.914062" stroke-linecap="round" />
</g>
		<g transform="matrix(1.03 0 0 1.03 154.73 -145.38)"  >
<path style="stroke: none; stroke-width: 1; stroke-dasharray: none; stroke-linecap: butt; stroke-dashoffset: 0; stroke-linejoin: miter; stroke-miterlimit: 4; fill: rgb(255,255,255); fill-rule: nonzero; opacity: 1;" vector-effect="non-scaling-stroke"  transform=" translate(-397.89, -107.16)" d="M 397.886719 164.171875 C 366.16015600000003 164.171875 340.35156200000006 138.597656 340.35156200000006 107.164062 C 340.35156200000006 75.730469 366.16015600000003 50.152344 397.8867190000001 50.152344 C 429.61718800000006 50.152344 455.42968800000006 75.726562 455.42968800000006 107.164062 C 455.42968800000006 138.601562 429.61328100000003 164.171875 397.8867190000001 164.171875 z M 397.886719 66.152344 C 374.984375 66.152344 356.35156200000006 84.550781 356.35156200000006 107.164062 C 356.35156200000006 129.777344 374.98437500000006 148.171875 397.8867190000001 148.171875 C 420.7968750000001 148.171875 439.42968800000006 129.777344 439.42968800000006 107.164062 C 439.42968800000006 84.550781 420.7929690000001 66.152344 397.8867190000001 66.152344 z M 397.886719 66.152344" stroke-linecap="round" />
</g>
		<g transform="matrix(1.03 0 0 1.03 0 6.11)"  >
<path style="stroke: none; stroke-width: 1; stroke-dasharray: none; stroke-linecap: butt; stroke-dashoffset: 0; stroke-linejoin: miter; stroke-miterlimit: 4; fill: rgb(255,255,255); fill-rule: nonzero; opacity: 1;" vector-effect="non-scaling-stroke"  transform=" translate(-248, -253.92)" d="M 356.578125 352 L 139.421875 352 C 124.996094 352 113.261719 340.351562 113.261719 326.03125 L 113.261719 289.226562 C 113.261719 215.671875 173.699219 155.832031 248 155.832031 C 322.30078100000003 155.832031 382.73828100000003 215.671875 382.73828100000003 289.226562 L 382.73828100000003 326.03125 C 382.73828100000003 340.351562 371.00390600000003 352 356.578125 352 z M 248 171.835938 C 182.527344 171.835938 129.261719 224.5 129.261719 289.23046899999997 L 129.261719 326.035156 C 129.261719 331.53125 133.820312 336.003906 139.421875 336.003906 L 356.57421899999997 336.003906 C 362.175781 336.003906 366.734375 331.53125 366.734375 326.035156 L 366.734375 289.23046899999997 C 366.738281 224.49999999999997 313.47265600000003 171.83593799999997 248 171.83593799999997 z M 248 171.835938" stroke-linecap="round" />
</g>
		<g transform="matrix(1.03 0 0 1.03 -2.87 -180.4)"  >
<path style="stroke: none; stroke-width: 1; stroke-dasharray: none; stroke-linecap: butt; stroke-dashoffset: 0; stroke-linejoin: miter; stroke-miterlimit: 4; fill: rgb(255,255,255); fill-rule: nonzero; opacity: 1;" vector-effect="non-scaling-stroke"  transform=" translate(-245.22, -73.24)" d="M 245.21875 146.484375 C 204.453125 146.484375 171.28125 113.628906 171.28125 73.238281 C 171.28125 32.851562 204.449219 0 245.21875 0 C 285.992188 0 319.16015600000003 32.855469 319.16015600000003 73.242188 C 319.16015600000003 113.632812 285.98828100000003 146.484375 245.21875000000003 146.484375 z M 245.21875 16 C 213.273438 16 187.28125 41.679688 187.28125 73.242188 C 187.28125 104.808594 213.273438 130.488281 245.21875 130.488281 C 277.16796899999997 130.488281 303.16015600000003 104.808594 303.16015600000003 73.242188 C 303.16015600000003 41.679688 277.167969 16 245.21875000000003 16 z M 245.21875 16" stroke-linecap="round" />
</g>
</g>
</g>
</svg>