<svg width="16" height="16" viewBox="0 0 16 16" fill="none" xmlns="http://www.w3.org/2000/svg">
<path d="M8.30664 2.87162C9.96412 2.50607 11.6809 2.48853 13.3477 2.82182L13.6094 2.87357H13.6104C14.2728 3.00636 14.75 3.58721 14.75 4.26322V11.4888C14.7499 12.3827 13.9323 13.0529 13.0557 12.8775C11.4947 12.5653 9.88427 12.604 8.33984 12.9898L8.33887 12.9888L8.18359 13.0288L8.18164 13.0298C6.3183 13.4953 4.37481 13.5417 2.49121 13.1646H2.48926L2.38672 13.1441V13.1431C1.72449 13.0099 1.25007 12.4285 1.25 11.7554V4.52982C1.25 3.63556 2.06759 2.9662 2.94336 3.14017L2.82129 3.75541L2.94434 3.14017C4.5053 3.45236 6.11575 3.41364 7.66016 3.02787L7.97559 2.94877L8.30664 2.87162ZM8 5.04154C7.6605 5.04189 7.38451 5.31339 7.37598 5.65092C6.71144 5.77988 6.20913 6.36466 6.20898 7.06791C6.20908 7.73076 6.66108 8.30823 7.30176 8.46928L8.39551 8.74467V8.74369C8.48229 8.76618 8.54181 8.84494 8.54199 8.93314C8.54188 9.0402 8.45572 9.12748 8.34863 9.12748H8.01953C8.01314 9.12729 8.00644 9.12553 8 9.12553C7.99345 9.12553 7.98697 9.12727 7.98047 9.12748H7.70898C7.64479 9.12736 7.57536 9.09533 7.52148 9.00736C7.3413 8.71302 6.9565 8.6202 6.66211 8.80033C6.36801 8.98052 6.27518 9.36541 6.45508 9.65971C6.6517 9.98098 6.97342 10.2389 7.375 10.3345C7.37564 10.6789 7.65552 10.9582 8 10.9585C8.33954 10.9585 8.61411 10.6875 8.62305 10.3501C9.28946 10.2218 9.79189 9.63614 9.79199 8.93314C9.79181 8.27009 9.34051 7.6946 8.7002 7.53275L8.69922 7.53178L7.60645 7.25736C7.52059 7.23578 7.45908 7.15688 7.45898 7.06791C7.45915 6.96101 7.54545 6.87473 7.65234 6.87455H8.29199C8.35774 6.87455 8.42625 6.90602 8.47949 6.99271C8.66001 7.28678 9.04471 7.37915 9.33887 7.19877C9.63292 7.01828 9.7252 6.63354 9.54492 6.33939C9.34744 6.0175 9.02563 5.76001 8.62402 5.66557C8.62325 5.32104 8.3447 5.04154 8 5.04154Z" fill="#545451"/>
</svg>
