<svg width="40" height="40" viewBox="0 0 40 40" fill="none" xmlns="http://www.w3.org/2000/svg">
<mask id="mask0" style="mask-type:alpha" maskUnits="userSpaceOnUse" x="0" y="0" width="40" height="40">
<rect width="40" height="40" fill="#FF805B"/>
</mask>
<g mask="url(#mask0)">
<path fill-rule="evenodd" clip-rule="evenodd" d="M12.2221 9.38747C11.8315 8.99694 11.1984 8.99694 10.8078 9.38747L9.39363 10.8017C9.00311 11.1922 9.00311 11.8254 9.39363 12.2159L10.8127 13.6349C11.2032 14.0254 11.2032 14.6586 10.8127 15.0491L9.39733 16.4645C9.00681 16.855 8.37364 16.855 7.98312 16.4645L6.5653 15.0466C6.17478 14.6561 5.54161 14.6561 5.15109 15.0466L3.73688 16.4609C3.34635 16.8514 3.34635 17.4846 3.73688 17.8751L5.15469 19.2929C5.54522 19.6834 5.54522 20.3166 5.15469 20.7071L3.73688 22.1249C3.34635 22.5154 3.34635 23.1486 3.73688 23.5391L5.15109 24.9534C5.54161 25.3439 6.17478 25.3439 6.5653 24.9534L7.98312 23.5355C8.37364 23.145 9.00681 23.145 9.39733 23.5355L10.8127 24.9509C11.2032 25.3414 11.2032 25.9746 10.8127 26.3651L9.39363 27.7841C9.00311 28.1746 9.00311 28.8078 9.39363 29.1983L10.8078 30.6125C11.1984 31.0031 11.8315 31.0031 12.2221 30.6125L13.6411 29.1935C14.0316 28.803 14.6648 28.803 15.0553 29.1935L16.4678 30.606C16.8583 30.9965 16.8583 31.6297 16.4678 32.0202L15.0506 33.4374C14.6601 33.8279 14.6601 34.4611 15.0506 34.8516L16.4648 36.2659C16.8553 36.6564 17.4885 36.6564 17.879 36.2659L19.2962 34.8486C19.6867 34.4581 20.3199 34.4581 20.7104 34.8486L22.1216 36.2598C22.5122 36.6504 23.1453 36.6504 23.5359 36.2598L24.9501 34.8456C25.3406 34.4551 25.3406 33.8219 24.9501 33.4314L23.5389 32.0202C23.1483 31.6297 23.1483 30.9965 23.5389 30.606L24.9542 29.1907C25.3447 28.8001 25.9779 28.8001 26.3684 29.1907L27.7784 30.6007C28.1689 30.9912 28.8021 30.9912 29.1926 30.6007L30.6068 29.1864C30.9974 28.7959 30.9974 28.1628 30.6068 27.7722L29.1968 26.3622C28.8063 25.9717 28.8063 25.3386 29.1968 24.948L30.6093 23.5355C30.9998 23.145 31.633 23.145 32.0235 23.5355L33.4353 24.9473C33.8259 25.3379 34.459 25.3379 34.8496 24.9473L36.2638 23.5331C36.6543 23.1426 36.6543 22.5094 36.2638 22.1189L34.852 20.7071C34.4614 20.3166 34.4614 19.6834 34.852 19.2929L36.2638 17.8811C36.6543 17.4906 36.6543 16.8574 36.2638 16.4669L34.8496 15.0527C34.459 14.6621 33.8259 14.6621 33.4353 15.0527L32.0235 16.4645C31.633 16.855 30.9998 16.855 30.6093 16.4645L29.1968 15.052C28.8063 14.6614 28.8063 14.0283 29.1968 13.6378L30.6068 12.2278C30.9974 11.8372 30.9974 11.2041 30.6068 10.8136L29.1926 9.39934C28.8021 9.00881 28.1689 9.00881 27.7784 9.39934L26.3684 10.8093C25.9779 11.1999 25.3447 11.1999 24.9542 10.8093L23.5389 9.394C23.1483 9.00348 23.1483 8.37031 23.5389 7.97979L24.9501 6.56858C25.3406 6.17806 25.3406 5.5449 24.9501 5.15437L23.5359 3.74016C23.1453 3.34963 22.5122 3.34963 22.1216 3.74016L20.7104 5.15136C20.3199 5.54189 19.6867 5.54189 19.2962 5.15136L17.879 3.73415C17.4885 3.34362 16.8553 3.34362 16.4648 3.73415L15.0506 5.14836C14.6601 5.53889 14.6601 6.17205 15.0506 6.56258L16.4678 7.97979C16.8583 8.37031 16.8583 9.00348 16.4678 9.394L15.0553 10.8065C14.6648 11.197 14.0316 11.197 13.6411 10.8065L12.2221 9.38747ZM27.7809 20.7071C28.1714 20.3166 28.1714 19.6834 27.7809 19.2929L26.3684 17.8804C25.9779 17.4899 25.3447 17.4899 24.9542 17.8804L23.5417 19.2929C23.1512 19.6834 23.1512 20.3166 23.5417 20.7071L24.9542 22.1196C25.3447 22.5101 25.9779 22.5101 26.3684 22.1196L27.7809 20.7071ZM22.1258 26.3622C22.5163 25.9717 22.5163 25.3386 22.1258 24.948L20.7133 23.5355C20.3227 23.145 19.6896 23.145 19.2991 23.5355L17.8837 24.9509C17.4932 25.3414 17.4932 25.9746 17.8837 26.3651L19.2962 27.7776C19.6867 28.1681 20.3199 28.1681 20.7104 27.7776L22.1258 26.3622ZM12.2258 20.7071C11.8352 20.3166 11.8352 19.6834 12.2258 19.2929L13.6411 17.8776C14.0316 17.487 14.6648 17.487 15.0553 17.8776L16.4706 19.2929C16.8612 19.6834 16.8612 20.3166 16.4706 20.7071L15.0553 22.1224C14.6648 22.513 14.0316 22.513 13.6411 22.1224L12.2258 20.7071ZM17.8837 15.0491C17.4932 14.6586 17.4932 14.0254 17.8837 13.6349L19.2962 12.2224C19.6867 11.8319 20.3199 11.8319 20.7104 12.2224L22.1258 13.6378C22.5163 14.0283 22.5163 14.6614 22.1258 15.052L20.7133 16.4645C20.3227 16.855 19.6896 16.855 19.2991 16.4645L17.8837 15.0491Z" fill="#FF805B"/>
</g>
</svg>
