<svg width="37" height="37" viewBox="0 0 37 37" fill="none" xmlns="http://www.w3.org/2000/svg">
<g clip-path="url(#clip0_1075_4484)">
<g clip-path="url(#clip1_1075_4484)">
<path fill-rule="evenodd" clip-rule="evenodd" d="M11.5624 8.97437C11.1924 8.60437 10.6374 8.60437 10.2674 8.97437L8.97242 10.2694C8.60242 10.6394 8.60242 11.1944 8.97242 11.5644L10.2674 12.8594C10.6374 13.2294 10.6374 13.7844 10.2674 14.1544L8.97242 15.4494C8.60242 15.8194 8.04742 15.8194 7.67742 15.4494L6.47492 14.0619C6.10492 13.6919 5.54992 13.6919 5.17992 14.0619L3.88492 15.3569C3.51492 15.7269 3.51492 16.2819 3.88492 16.6519L5.17992 17.9469C5.54992 18.3169 5.54992 18.8719 5.17992 19.2419L3.88492 20.5369C3.51492 20.9069 3.51492 21.4619 3.88492 21.8319L5.17992 23.1269C5.54992 23.4969 6.10492 23.4969 6.47492 23.1269L7.76992 21.8319C8.13992 21.4619 8.69492 21.4619 9.06492 21.8319L10.3599 23.1269C10.7299 23.4969 10.7299 24.0519 10.3599 24.4219L9.06492 25.7169C8.69492 26.0869 8.69492 26.6419 9.06492 27.0119L10.3599 28.3069C10.7299 28.6769 11.2849 28.6769 11.6549 28.3069L12.9499 27.0119C13.3199 26.6419 13.8749 26.6419 14.2449 27.0119L15.5399 28.3069C15.9099 28.6769 15.9099 29.2319 15.5399 29.6019L14.0599 30.5269C13.6899 30.8969 13.6899 31.4519 14.0599 31.8219L15.3549 33.1169C15.7249 33.4869 16.2799 33.4869 16.6499 33.1169L17.9449 31.8219C18.3149 31.4519 18.8699 31.4519 19.2399 31.8219L20.5349 33.1169C20.9049 33.4869 21.4599 33.4869 21.8299 33.1169L23.1249 31.8219C23.4949 31.4519 23.4949 30.8969 23.1249 30.5269L21.8299 29.2319C21.4599 28.8619 21.4599 28.3069 21.8299 27.9369L23.1249 26.6419C23.4949 26.2719 24.0499 26.2719 24.4199 26.6419L25.7149 27.9369C26.0849 28.3069 26.6399 28.3069 27.0099 27.9369L28.3049 26.6419C28.6749 26.2719 28.6749 25.7169 28.3049 25.3469L27.0099 24.0519C26.6399 23.6819 26.6399 23.1269 27.0099 22.7569L28.3049 21.4619C28.6749 21.0919 29.2299 21.0919 29.5999 21.4619L30.8949 22.7569C31.2649 23.1269 31.8199 23.1269 32.1899 22.7569L33.4849 21.4619C33.8549 21.0919 33.8549 20.5369 33.4849 20.1669L32.1899 18.8719C31.8199 18.5019 31.8199 17.9469 32.1899 17.5769L33.4849 16.2819C33.8549 15.9119 33.8549 15.3569 33.4849 14.9869L32.1899 13.6919C31.8199 13.3219 31.2649 13.3219 30.8949 13.6919L29.5999 14.9869C29.2299 15.3569 28.6749 15.3569 28.3049 14.9869L27.0099 13.6919C26.6399 13.3219 26.6399 12.7669 27.0099 12.3969L28.3049 11.1019C28.6749 10.7319 28.6749 10.1769 28.3049 9.80688L27.0099 8.51188C26.6399 8.14187 26.0849 8.14187 25.7149 8.51188L24.4199 9.80688C24.0499 10.1769 23.4949 10.1769 23.1249 9.80688L21.8299 8.51188C21.4599 8.14187 21.4599 7.58688 21.8299 7.21688L22.9399 6.47688C23.3099 6.10687 23.3099 5.55187 22.9399 5.18187L21.6449 3.88688C21.2749 3.51688 20.7199 3.51688 20.3499 3.88688L19.0549 5.18187C18.6849 5.55187 18.1299 5.55187 17.7599 5.18187L16.6499 3.97938C16.2799 3.60938 15.7249 3.60938 15.3549 3.97938L14.0599 5.27437C13.6899 5.64437 13.6899 6.19937 14.0599 6.56937L15.3549 7.86438C15.7249 8.23438 15.7249 8.78937 15.3549 9.15937L14.0599 10.4544C13.6899 10.8244 13.1349 10.8244 12.7649 10.4544L11.5624 8.97437ZM25.4374 19.1494C25.8074 18.7794 25.8074 18.2244 25.4374 17.8544L24.2349 16.6519C23.8649 16.2819 23.3099 16.2819 22.9399 16.6519L21.6449 17.9469C21.2749 18.3169 21.2749 18.8719 21.6449 19.2419L22.9399 20.5369C23.3099 20.9069 23.8649 20.9069 24.2349 20.5369L25.4374 19.1494ZM20.4424 24.1444C20.8124 23.7744 20.8124 23.2194 20.4424 22.8494L19.1474 21.5544C18.7774 21.1844 18.2224 21.1844 17.8524 21.5544L16.6499 22.9419C16.2799 23.3119 16.2799 23.8669 16.6499 24.2369L17.9449 25.5319C18.3149 25.9019 18.8699 25.9019 19.2399 25.5319L20.4424 24.1444ZM11.5624 19.1494C11.1924 18.7794 11.1924 18.2244 11.5624 17.8544L12.8574 16.5594C13.2274 16.1894 13.7824 16.1894 14.1524 16.5594L15.4474 17.8544C15.8174 18.2244 15.8174 18.7794 15.4474 19.1494L14.1524 20.4444C13.7824 20.8144 13.2274 20.8144 12.8574 20.4444L11.5624 19.1494ZM16.6499 14.0619C16.2799 13.6919 16.2799 13.1369 16.6499 12.7669L17.9449 11.4719C18.3149 11.1019 18.8699 11.1019 19.2399 11.4719L20.5349 12.7669C20.9049 13.1369 20.9049 13.6919 20.5349 14.0619L19.2399 15.3569C18.8699 15.7269 18.3149 15.7269 17.9449 15.3569L16.6499 14.0619Z" fill="#99A730"/>
</g>
</g>
<defs>
<clipPath id="clip0_1075_4484">
<rect width="37" height="37" fill="white"/>
</clipPath>
<clipPath id="clip1_1075_4484">
<rect width="37" height="37" fill="white"/>
</clipPath>
</defs>
</svg>
