<svg width="16" height="16" viewBox="0 0 16 16" fill="none" xmlns="http://www.w3.org/2000/svg">
<path d="M6 9.47C3.67133 9.79067 2 10.6513 2 11.6667C2 12.9553 4.686 14 8 14C11.314 14 14 12.9553 14 11.6667C14 10.6513 12.3287 9.79067 10 9.47" stroke="#545451" stroke-width="1.25" stroke-linecap="round" stroke-linejoin="round"/>
<path d="M7.99999 11.3333V6" stroke="#545451" stroke-width="1.25" stroke-linecap="round" stroke-linejoin="round"/>
<path fill-rule="evenodd" clip-rule="evenodd" d="M9.41421 2.58579C10.1953 3.36683 10.1953 4.63316 9.41421 5.41421C8.63316 6.19526 7.36683 6.19526 6.58579 5.41421C5.80474 4.63316 5.80474 3.36683 6.58579 2.58579C7.36683 1.80474 8.63316 1.80474 9.41421 2.58579" fill="#545451"/>
<path d="M9.41421 2.58579C10.1953 3.36683 10.1953 4.63316 9.41421 5.41421C8.63316 6.19526 7.36683 6.19526 6.58579 5.41421C5.80474 4.63316 5.80474 3.36683 6.58579 2.58579C7.36683 1.80474 8.63316 1.80474 9.41421 2.58579" stroke="#545451" stroke-width="1.25" stroke-linecap="round" stroke-linejoin="round"/>
</svg>
