<svg width="1124" height="228" viewBox="0 0 1124 228" fill="none" xmlns="http://www.w3.org/2000/svg">
<path d="M4 2C4 3.10457 3.10457 4 2 4C0.895431 4 0 3.10457 0 2C0 0.895431 0.895431 0 2 0C3.10457 0 4 0.895431 4 2Z" fill="#BABEC8"/>
<path d="M36 2C36 3.10457 35.1046 4 34 4C32.8954 4 32 3.10457 32 2C32 0.895431 32.8954 0 34 0C35.1046 0 36 0.895431 36 2Z" fill="#BABEC8"/>
<path d="M68 2C68 3.10457 67.1046 4 66 4C64.8954 4 64 3.10457 64 2C64 0.895431 64.8954 0 66 0C67.1046 0 68 0.895431 68 2Z" fill="#BABEC8"/>
<path d="M100 2C100 3.10457 99.1046 4 98 4C96.8954 4 96 3.10457 96 2C96 0.895431 96.8954 0 98 0C99.1046 0 100 0.895431 100 2Z" fill="#BABEC8"/>
<path d="M132 2C132 3.10457 131.105 4 130 4C128.895 4 128 3.10457 128 2C128 0.895431 128.895 0 130 0C131.105 0 132 0.895431 132 2Z" fill="#BABEC8"/>
<path d="M164 2C164 3.10457 163.105 4 162 4C160.895 4 160 3.10457 160 2C160 0.895431 160.895 0 162 0C163.105 0 164 0.895431 164 2Z" fill="#BABEC8"/>
<path d="M196 2C196 3.10457 195.105 4 194 4C192.895 4 192 3.10457 192 2C192 0.895431 192.895 0 194 0C195.105 0 196 0.895431 196 2Z" fill="#BABEC8"/>
<path d="M228 2C228 3.10457 227.105 4 226 4C224.895 4 224 3.10457 224 2C224 0.895431 224.895 0 226 0C227.105 0 228 0.895431 228 2Z" fill="#BABEC8"/>
<path d="M4 34C4 35.1046 3.10457 36 2 36C0.895431 36 0 35.1046 0 34C0 32.8954 0.895431 32 2 32C3.10457 32 4 32.8954 4 34Z" fill="#BABEC8"/>
<path d="M36 34C36 35.1046 35.1046 36 34 36C32.8954 36 32 35.1046 32 34C32 32.8954 32.8954 32 34 32C35.1046 32 36 32.8954 36 34Z" fill="#BABEC8"/>
<path d="M68 34C68 35.1046 67.1046 36 66 36C64.8954 36 64 35.1046 64 34C64 32.8954 64.8954 32 66 32C67.1046 32 68 32.8954 68 34Z" fill="#BABEC8"/>
<path d="M100 34C100 35.1046 99.1046 36 98 36C96.8954 36 96 35.1046 96 34C96 32.8954 96.8954 32 98 32C99.1046 32 100 32.8954 100 34Z" fill="#BABEC8"/>
<path d="M132 34C132 35.1046 131.105 36 130 36C128.895 36 128 35.1046 128 34C128 32.8954 128.895 32 130 32C131.105 32 132 32.8954 132 34Z" fill="#BABEC8"/>
<path d="M164 34C164 35.1046 163.105 36 162 36C160.895 36 160 35.1046 160 34C160 32.8954 160.895 32 162 32C163.105 32 164 32.8954 164 34Z" fill="#BABEC8"/>
<path d="M196 34C196 35.1046 195.105 36 194 36C192.895 36 192 35.1046 192 34C192 32.8954 192.895 32 194 32C195.105 32 196 32.8954 196 34Z" fill="#BABEC8"/>
<path d="M228 34C228 35.1046 227.105 36 226 36C224.895 36 224 35.1046 224 34C224 32.8954 224.895 32 226 32C227.105 32 228 32.8954 228 34Z" fill="#BABEC8"/>
<path d="M4 66C4 67.1046 3.10457 68 2 68C0.895431 68 0 67.1046 0 66C0 64.8954 0.895431 64 2 64C3.10457 64 4 64.8954 4 66Z" fill="#BABEC8"/>
<path d="M36 66C36 67.1046 35.1046 68 34 68C32.8954 68 32 67.1046 32 66C32 64.8954 32.8954 64 34 64C35.1046 64 36 64.8954 36 66Z" fill="#BABEC8"/>
<path d="M68 66C68 67.1046 67.1046 68 66 68C64.8954 68 64 67.1046 64 66C64 64.8954 64.8954 64 66 64C67.1046 64 68 64.8954 68 66Z" fill="#BABEC8"/>
<path d="M100 66C100 67.1046 99.1046 68 98 68C96.8954 68 96 67.1046 96 66C96 64.8954 96.8954 64 98 64C99.1046 64 100 64.8954 100 66Z" fill="#BABEC8"/>
<path d="M132 66C132 67.1046 131.105 68 130 68C128.895 68 128 67.1046 128 66C128 64.8954 128.895 64 130 64C131.105 64 132 64.8954 132 66Z" fill="#BABEC8"/>
<path d="M164 66C164 67.1046 163.105 68 162 68C160.895 68 160 67.1046 160 66C160 64.8954 160.895 64 162 64C163.105 64 164 64.8954 164 66Z" fill="#BABEC8"/>
<path d="M196 66C196 67.1046 195.105 68 194 68C192.895 68 192 67.1046 192 66C192 64.8954 192.895 64 194 64C195.105 64 196 64.8954 196 66Z" fill="#BABEC8"/>
<path d="M228 66C228 67.1046 227.105 68 226 68C224.895 68 224 67.1046 224 66C224 64.8954 224.895 64 226 64C227.105 64 228 64.8954 228 66Z" fill="#BABEC8"/>
<path d="M4 98C4 99.1046 3.10457 100 2 100C0.895431 100 0 99.1046 0 98C0 96.8954 0.895431 96 2 96C3.10457 96 4 96.8954 4 98Z" fill="#BABEC8"/>
<path d="M36 98C36 99.1046 35.1046 100 34 100C32.8954 100 32 99.1046 32 98C32 96.8954 32.8954 96 34 96C35.1046 96 36 96.8954 36 98Z" fill="#BABEC8"/>
<path d="M68 98C68 99.1046 67.1046 100 66 100C64.8954 100 64 99.1046 64 98C64 96.8954 64.8954 96 66 96C67.1046 96 68 96.8954 68 98Z" fill="#BABEC8"/>
<path d="M100 98C100 99.1046 99.1046 100 98 100C96.8954 100 96 99.1046 96 98C96 96.8954 96.8954 96 98 96C99.1046 96 100 96.8954 100 98Z" fill="#BABEC8"/>
<path d="M132 98C132 99.1046 131.105 100 130 100C128.895 100 128 99.1046 128 98C128 96.8954 128.895 96 130 96C131.105 96 132 96.8954 132 98Z" fill="#BABEC8"/>
<path d="M164 98C164 99.1046 163.105 100 162 100C160.895 100 160 99.1046 160 98C160 96.8954 160.895 96 162 96C163.105 96 164 96.8954 164 98Z" fill="#BABEC8"/>
<path d="M196 98C196 99.1046 195.105 100 194 100C192.895 100 192 99.1046 192 98C192 96.8954 192.895 96 194 96C195.105 96 196 96.8954 196 98Z" fill="#BABEC8"/>
<path d="M228 98C228 99.1046 227.105 100 226 100C224.895 100 224 99.1046 224 98C224 96.8954 224.895 96 226 96C227.105 96 228 96.8954 228 98Z" fill="#BABEC8"/>
<path d="M516 2C516 3.10457 515.105 4 514 4C512.895 4 512 3.10457 512 2C512 0.895431 512.895 0 514 0C515.105 0 516 0.895431 516 2Z" fill="#BABEC8"/>
<path d="M548 2C548 3.10457 547.105 4 546 4C544.895 4 544 3.10457 544 2C544 0.895431 544.895 0 546 0C547.105 0 548 0.895431 548 2Z" fill="#BABEC8"/>
<path d="M580 2C580 3.10457 579.105 4 578 4C576.895 4 576 3.10457 576 2C576 0.895431 576.895 0 578 0C579.105 0 580 0.895431 580 2Z" fill="#BABEC8"/>
<path d="M612 2C612 3.10457 611.105 4 610 4C608.895 4 608 3.10457 608 2C608 0.895431 608.895 0 610 0C611.105 0 612 0.895431 612 2Z" fill="#BABEC8"/>
<path d="M644 2C644 3.10457 643.105 4 642 4C640.895 4 640 3.10457 640 2C640 0.895431 640.895 0 642 0C643.105 0 644 0.895431 644 2Z" fill="#BABEC8"/>
<path d="M676 2C676 3.10457 675.105 4 674 4C672.895 4 672 3.10457 672 2C672 0.895431 672.895 0 674 0C675.105 0 676 0.895431 676 2Z" fill="#BABEC8"/>
<path d="M708 2C708 3.10457 707.105 4 706 4C704.895 4 704 3.10457 704 2C704 0.895431 704.895 0 706 0C707.105 0 708 0.895431 708 2Z" fill="#BABEC8"/>
<path d="M740 2C740 3.10457 739.105 4 738 4C736.895 4 736 3.10457 736 2C736 0.895431 736.895 0 738 0C739.105 0 740 0.895431 740 2Z" fill="#BABEC8"/>
<path d="M516 34C516 35.1046 515.105 36 514 36C512.895 36 512 35.1046 512 34C512 32.8954 512.895 32 514 32C515.105 32 516 32.8954 516 34Z" fill="#BABEC8"/>
<path d="M548 34C548 35.1046 547.105 36 546 36C544.895 36 544 35.1046 544 34C544 32.8954 544.895 32 546 32C547.105 32 548 32.8954 548 34Z" fill="#BABEC8"/>
<path d="M580 34C580 35.1046 579.105 36 578 36C576.895 36 576 35.1046 576 34C576 32.8954 576.895 32 578 32C579.105 32 580 32.8954 580 34Z" fill="#BABEC8"/>
<path d="M612 34C612 35.1046 611.105 36 610 36C608.895 36 608 35.1046 608 34C608 32.8954 608.895 32 610 32C611.105 32 612 32.8954 612 34Z" fill="#BABEC8"/>
<path d="M644 34C644 35.1046 643.105 36 642 36C640.895 36 640 35.1046 640 34C640 32.8954 640.895 32 642 32C643.105 32 644 32.8954 644 34Z" fill="#BABEC8"/>
<path d="M676 34C676 35.1046 675.105 36 674 36C672.895 36 672 35.1046 672 34C672 32.8954 672.895 32 674 32C675.105 32 676 32.8954 676 34Z" fill="#BABEC8"/>
<path d="M708 34C708 35.1046 707.105 36 706 36C704.895 36 704 35.1046 704 34C704 32.8954 704.895 32 706 32C707.105 32 708 32.8954 708 34Z" fill="#BABEC8"/>
<path d="M740 34C740 35.1046 739.105 36 738 36C736.895 36 736 35.1046 736 34C736 32.8954 736.895 32 738 32C739.105 32 740 32.8954 740 34Z" fill="#BABEC8"/>
<path d="M516 66C516 67.1046 515.105 68 514 68C512.895 68 512 67.1046 512 66C512 64.8954 512.895 64 514 64C515.105 64 516 64.8954 516 66Z" fill="#BABEC8"/>
<path d="M548 66C548 67.1046 547.105 68 546 68C544.895 68 544 67.1046 544 66C544 64.8954 544.895 64 546 64C547.105 64 548 64.8954 548 66Z" fill="#BABEC8"/>
<path d="M580 66C580 67.1046 579.105 68 578 68C576.895 68 576 67.1046 576 66C576 64.8954 576.895 64 578 64C579.105 64 580 64.8954 580 66Z" fill="#BABEC8"/>
<path d="M612 66C612 67.1046 611.105 68 610 68C608.895 68 608 67.1046 608 66C608 64.8954 608.895 64 610 64C611.105 64 612 64.8954 612 66Z" fill="#BABEC8"/>
<path d="M644 66C644 67.1046 643.105 68 642 68C640.895 68 640 67.1046 640 66C640 64.8954 640.895 64 642 64C643.105 64 644 64.8954 644 66Z" fill="#BABEC8"/>
<path d="M676 66C676 67.1046 675.105 68 674 68C672.895 68 672 67.1046 672 66C672 64.8954 672.895 64 674 64C675.105 64 676 64.8954 676 66Z" fill="#BABEC8"/>
<path d="M708 66C708 67.1046 707.105 68 706 68C704.895 68 704 67.1046 704 66C704 64.8954 704.895 64 706 64C707.105 64 708 64.8954 708 66Z" fill="#BABEC8"/>
<path d="M740 66C740 67.1046 739.105 68 738 68C736.895 68 736 67.1046 736 66C736 64.8954 736.895 64 738 64C739.105 64 740 64.8954 740 66Z" fill="#BABEC8"/>
<path d="M516 98C516 99.1046 515.105 100 514 100C512.895 100 512 99.1046 512 98C512 96.8954 512.895 96 514 96C515.105 96 516 96.8954 516 98Z" fill="#BABEC8"/>
<path d="M548 98C548 99.1046 547.105 100 546 100C544.895 100 544 99.1046 544 98C544 96.8954 544.895 96 546 96C547.105 96 548 96.8954 548 98Z" fill="#BABEC8"/>
<path d="M580 98C580 99.1046 579.105 100 578 100C576.895 100 576 99.1046 576 98C576 96.8954 576.895 96 578 96C579.105 96 580 96.8954 580 98Z" fill="#BABEC8"/>
<path d="M612 98C612 99.1046 611.105 100 610 100C608.895 100 608 99.1046 608 98C608 96.8954 608.895 96 610 96C611.105 96 612 96.8954 612 98Z" fill="#BABEC8"/>
<path d="M644 98C644 99.1046 643.105 100 642 100C640.895 100 640 99.1046 640 98C640 96.8954 640.895 96 642 96C643.105 96 644 96.8954 644 98Z" fill="#BABEC8"/>
<path d="M676 98C676 99.1046 675.105 100 674 100C672.895 100 672 99.1046 672 98C672 96.8954 672.895 96 674 96C675.105 96 676 96.8954 676 98Z" fill="#BABEC8"/>
<path d="M708 98C708 99.1046 707.105 100 706 100C704.895 100 704 99.1046 704 98C704 96.8954 704.895 96 706 96C707.105 96 708 96.8954 708 98Z" fill="#BABEC8"/>
<path d="M740 98C740 99.1046 739.105 100 738 100C736.895 100 736 99.1046 736 98C736 96.8954 736.895 96 738 96C739.105 96 740 96.8954 740 98Z" fill="#BABEC8"/>
<path d="M4 130C4 131.105 3.10457 132 2 132C0.895431 132 0 131.105 0 130C0 128.895 0.895431 128 2 128C3.10457 128 4 128.895 4 130Z" fill="#BABEC8"/>
<path d="M36 130C36 131.105 35.1046 132 34 132C32.8954 132 32 131.105 32 130C32 128.895 32.8954 128 34 128C35.1046 128 36 128.895 36 130Z" fill="#BABEC8"/>
<path d="M68 130C68 131.105 67.1046 132 66 132C64.8954 132 64 131.105 64 130C64 128.895 64.8954 128 66 128C67.1046 128 68 128.895 68 130Z" fill="#BABEC8"/>
<path d="M100 130C100 131.105 99.1046 132 98 132C96.8954 132 96 131.105 96 130C96 128.895 96.8954 128 98 128C99.1046 128 100 128.895 100 130Z" fill="#BABEC8"/>
<path d="M132 130C132 131.105 131.105 132 130 132C128.895 132 128 131.105 128 130C128 128.895 128.895 128 130 128C131.105 128 132 128.895 132 130Z" fill="#BABEC8"/>
<path d="M164 130C164 131.105 163.105 132 162 132C160.895 132 160 131.105 160 130C160 128.895 160.895 128 162 128C163.105 128 164 128.895 164 130Z" fill="#BABEC8"/>
<path d="M196 130C196 131.105 195.105 132 194 132C192.895 132 192 131.105 192 130C192 128.895 192.895 128 194 128C195.105 128 196 128.895 196 130Z" fill="#BABEC8"/>
<path d="M228 130C228 131.105 227.105 132 226 132C224.895 132 224 131.105 224 130C224 128.895 224.895 128 226 128C227.105 128 228 128.895 228 130Z" fill="#BABEC8"/>
<path d="M4 162C4 163.105 3.10457 164 2 164C0.895431 164 0 163.105 0 162C0 160.895 0.895431 160 2 160C3.10457 160 4 160.895 4 162Z" fill="#BABEC8"/>
<path d="M36 162C36 163.105 35.1046 164 34 164C32.8954 164 32 163.105 32 162C32 160.895 32.8954 160 34 160C35.1046 160 36 160.895 36 162Z" fill="#BABEC8"/>
<path d="M68 162C68 163.105 67.1046 164 66 164C64.8954 164 64 163.105 64 162C64 160.895 64.8954 160 66 160C67.1046 160 68 160.895 68 162Z" fill="#BABEC8"/>
<path d="M100 162C100 163.105 99.1046 164 98 164C96.8954 164 96 163.105 96 162C96 160.895 96.8954 160 98 160C99.1046 160 100 160.895 100 162Z" fill="#BABEC8"/>
<path d="M132 162C132 163.105 131.105 164 130 164C128.895 164 128 163.105 128 162C128 160.895 128.895 160 130 160C131.105 160 132 160.895 132 162Z" fill="#BABEC8"/>
<path d="M164 162C164 163.105 163.105 164 162 164C160.895 164 160 163.105 160 162C160 160.895 160.895 160 162 160C163.105 160 164 160.895 164 162Z" fill="#BABEC8"/>
<path d="M196 162C196 163.105 195.105 164 194 164C192.895 164 192 163.105 192 162C192 160.895 192.895 160 194 160C195.105 160 196 160.895 196 162Z" fill="#BABEC8"/>
<path d="M228 162C228 163.105 227.105 164 226 164C224.895 164 224 163.105 224 162C224 160.895 224.895 160 226 160C227.105 160 228 160.895 228 162Z" fill="#BABEC8"/>
<path d="M4 194C4 195.105 3.10457 196 2 196C0.895431 196 0 195.105 0 194C0 192.895 0.895431 192 2 192C3.10457 192 4 192.895 4 194Z" fill="#BABEC8"/>
<path d="M36 194C36 195.105 35.1046 196 34 196C32.8954 196 32 195.105 32 194C32 192.895 32.8954 192 34 192C35.1046 192 36 192.895 36 194Z" fill="#BABEC8"/>
<path d="M68 194C68 195.105 67.1046 196 66 196C64.8954 196 64 195.105 64 194C64 192.895 64.8954 192 66 192C67.1046 192 68 192.895 68 194Z" fill="#BABEC8"/>
<path d="M100 194C100 195.105 99.1046 196 98 196C96.8954 196 96 195.105 96 194C96 192.895 96.8954 192 98 192C99.1046 192 100 192.895 100 194Z" fill="#BABEC8"/>
<path d="M132 194C132 195.105 131.105 196 130 196C128.895 196 128 195.105 128 194C128 192.895 128.895 192 130 192C131.105 192 132 192.895 132 194Z" fill="#BABEC8"/>
<path d="M164 194C164 195.105 163.105 196 162 196C160.895 196 160 195.105 160 194C160 192.895 160.895 192 162 192C163.105 192 164 192.895 164 194Z" fill="#BABEC8"/>
<path d="M196 194C196 195.105 195.105 196 194 196C192.895 196 192 195.105 192 194C192 192.895 192.895 192 194 192C195.105 192 196 192.895 196 194Z" fill="#BABEC8"/>
<path d="M228 194C228 195.105 227.105 196 226 196C224.895 196 224 195.105 224 194C224 192.895 224.895 192 226 192C227.105 192 228 192.895 228 194Z" fill="#BABEC8"/>
<path d="M4 226C4 227.105 3.10457 228 2 228C0.895431 228 0 227.105 0 226C0 224.895 0.895431 224 2 224C3.10457 224 4 224.895 4 226Z" fill="#BABEC8"/>
<path d="M36 226C36 227.105 35.1046 228 34 228C32.8954 228 32 227.105 32 226C32 224.895 32.8954 224 34 224C35.1046 224 36 224.895 36 226Z" fill="#BABEC8"/>
<path d="M68 226C68 227.105 67.1046 228 66 228C64.8954 228 64 227.105 64 226C64 224.895 64.8954 224 66 224C67.1046 224 68 224.895 68 226Z" fill="#BABEC8"/>
<path d="M100 226C100 227.105 99.1046 228 98 228C96.8954 228 96 227.105 96 226C96 224.895 96.8954 224 98 224C99.1046 224 100 224.895 100 226Z" fill="#BABEC8"/>
<path d="M132 226C132 227.105 131.105 228 130 228C128.895 228 128 227.105 128 226C128 224.895 128.895 224 130 224C131.105 224 132 224.895 132 226Z" fill="#BABEC8"/>
<path d="M164 226C164 227.105 163.105 228 162 228C160.895 228 160 227.105 160 226C160 224.895 160.895 224 162 224C163.105 224 164 224.895 164 226Z" fill="#BABEC8"/>
<path d="M196 226C196 227.105 195.105 228 194 228C192.895 228 192 227.105 192 226C192 224.895 192.895 224 194 224C195.105 224 196 224.895 196 226Z" fill="#BABEC8"/>
<path d="M228 226C228 227.105 227.105 228 226 228C224.895 228 224 227.105 224 226C224 224.895 224.895 224 226 224C227.105 224 228 224.895 228 226Z" fill="#BABEC8"/>
<path d="M516 130C516 131.105 515.105 132 514 132C512.895 132 512 131.105 512 130C512 128.895 512.895 128 514 128C515.105 128 516 128.895 516 130Z" fill="#BABEC8"/>
<path d="M548 130C548 131.105 547.105 132 546 132C544.895 132 544 131.105 544 130C544 128.895 544.895 128 546 128C547.105 128 548 128.895 548 130Z" fill="#BABEC8"/>
<path d="M580 130C580 131.105 579.105 132 578 132C576.895 132 576 131.105 576 130C576 128.895 576.895 128 578 128C579.105 128 580 128.895 580 130Z" fill="#BABEC8"/>
<path d="M612 130C612 131.105 611.105 132 610 132C608.895 132 608 131.105 608 130C608 128.895 608.895 128 610 128C611.105 128 612 128.895 612 130Z" fill="#BABEC8"/>
<path d="M644 130C644 131.105 643.105 132 642 132C640.895 132 640 131.105 640 130C640 128.895 640.895 128 642 128C643.105 128 644 128.895 644 130Z" fill="#BABEC8"/>
<path d="M676 130C676 131.105 675.105 132 674 132C672.895 132 672 131.105 672 130C672 128.895 672.895 128 674 128C675.105 128 676 128.895 676 130Z" fill="#BABEC8"/>
<path d="M708 130C708 131.105 707.105 132 706 132C704.895 132 704 131.105 704 130C704 128.895 704.895 128 706 128C707.105 128 708 128.895 708 130Z" fill="#BABEC8"/>
<path d="M740 130C740 131.105 739.105 132 738 132C736.895 132 736 131.105 736 130C736 128.895 736.895 128 738 128C739.105 128 740 128.895 740 130Z" fill="#BABEC8"/>
<path d="M516 162C516 163.105 515.105 164 514 164C512.895 164 512 163.105 512 162C512 160.895 512.895 160 514 160C515.105 160 516 160.895 516 162Z" fill="#BABEC8"/>
<path d="M548 162C548 163.105 547.105 164 546 164C544.895 164 544 163.105 544 162C544 160.895 544.895 160 546 160C547.105 160 548 160.895 548 162Z" fill="#BABEC8"/>
<path d="M580 162C580 163.105 579.105 164 578 164C576.895 164 576 163.105 576 162C576 160.895 576.895 160 578 160C579.105 160 580 160.895 580 162Z" fill="#BABEC8"/>
<path d="M612 162C612 163.105 611.105 164 610 164C608.895 164 608 163.105 608 162C608 160.895 608.895 160 610 160C611.105 160 612 160.895 612 162Z" fill="#BABEC8"/>
<path d="M644 162C644 163.105 643.105 164 642 164C640.895 164 640 163.105 640 162C640 160.895 640.895 160 642 160C643.105 160 644 160.895 644 162Z" fill="#BABEC8"/>
<path d="M676 162C676 163.105 675.105 164 674 164C672.895 164 672 163.105 672 162C672 160.895 672.895 160 674 160C675.105 160 676 160.895 676 162Z" fill="#BABEC8"/>
<path d="M708 162C708 163.105 707.105 164 706 164C704.895 164 704 163.105 704 162C704 160.895 704.895 160 706 160C707.105 160 708 160.895 708 162Z" fill="#BABEC8"/>
<path d="M740 162C740 163.105 739.105 164 738 164C736.895 164 736 163.105 736 162C736 160.895 736.895 160 738 160C739.105 160 740 160.895 740 162Z" fill="#BABEC8"/>
<path d="M516 194C516 195.105 515.105 196 514 196C512.895 196 512 195.105 512 194C512 192.895 512.895 192 514 192C515.105 192 516 192.895 516 194Z" fill="#BABEC8"/>
<path d="M548 194C548 195.105 547.105 196 546 196C544.895 196 544 195.105 544 194C544 192.895 544.895 192 546 192C547.105 192 548 192.895 548 194Z" fill="#BABEC8"/>
<path d="M580 194C580 195.105 579.105 196 578 196C576.895 196 576 195.105 576 194C576 192.895 576.895 192 578 192C579.105 192 580 192.895 580 194Z" fill="#BABEC8"/>
<path d="M612 194C612 195.105 611.105 196 610 196C608.895 196 608 195.105 608 194C608 192.895 608.895 192 610 192C611.105 192 612 192.895 612 194Z" fill="#BABEC8"/>
<path d="M644 194C644 195.105 643.105 196 642 196C640.895 196 640 195.105 640 194C640 192.895 640.895 192 642 192C643.105 192 644 192.895 644 194Z" fill="#BABEC8"/>
<path d="M676 194C676 195.105 675.105 196 674 196C672.895 196 672 195.105 672 194C672 192.895 672.895 192 674 192C675.105 192 676 192.895 676 194Z" fill="#BABEC8"/>
<path d="M708 194C708 195.105 707.105 196 706 196C704.895 196 704 195.105 704 194C704 192.895 704.895 192 706 192C707.105 192 708 192.895 708 194Z" fill="#BABEC8"/>
<path d="M740 194C740 195.105 739.105 196 738 196C736.895 196 736 195.105 736 194C736 192.895 736.895 192 738 192C739.105 192 740 192.895 740 194Z" fill="#BABEC8"/>
<path d="M516 226C516 227.105 515.105 228 514 228C512.895 228 512 227.105 512 226C512 224.895 512.895 224 514 224C515.105 224 516 224.895 516 226Z" fill="#BABEC8"/>
<path d="M548 226C548 227.105 547.105 228 546 228C544.895 228 544 227.105 544 226C544 224.895 544.895 224 546 224C547.105 224 548 224.895 548 226Z" fill="#BABEC8"/>
<path d="M580 226C580 227.105 579.105 228 578 228C576.895 228 576 227.105 576 226C576 224.895 576.895 224 578 224C579.105 224 580 224.895 580 226Z" fill="#BABEC8"/>
<path d="M612 226C612 227.105 611.105 228 610 228C608.895 228 608 227.105 608 226C608 224.895 608.895 224 610 224C611.105 224 612 224.895 612 226Z" fill="#BABEC8"/>
<path d="M644 226C644 227.105 643.105 228 642 228C640.895 228 640 227.105 640 226C640 224.895 640.895 224 642 224C643.105 224 644 224.895 644 226Z" fill="#BABEC8"/>
<path d="M676 226C676 227.105 675.105 228 674 228C672.895 228 672 227.105 672 226C672 224.895 672.895 224 674 224C675.105 224 676 224.895 676 226Z" fill="#BABEC8"/>
<path d="M708 226C708 227.105 707.105 228 706 228C704.895 228 704 227.105 704 226C704 224.895 704.895 224 706 224C707.105 224 708 224.895 708 226Z" fill="#BABEC8"/>
<path d="M740 226C740 227.105 739.105 228 738 228C736.895 228 736 227.105 736 226C736 224.895 736.895 224 738 224C739.105 224 740 224.895 740 226Z" fill="#BABEC8"/>
<path d="M516 130C516 131.105 515.105 132 514 132C512.895 132 512 131.105 512 130C512 128.895 512.895 128 514 128C515.105 128 516 128.895 516 130Z" fill="#BABEC8"/>
<path d="M548 130C548 131.105 547.105 132 546 132C544.895 132 544 131.105 544 130C544 128.895 544.895 128 546 128C547.105 128 548 128.895 548 130Z" fill="#BABEC8"/>
<path d="M580 130C580 131.105 579.105 132 578 132C576.895 132 576 131.105 576 130C576 128.895 576.895 128 578 128C579.105 128 580 128.895 580 130Z" fill="#BABEC8"/>
<path d="M612 130C612 131.105 611.105 132 610 132C608.895 132 608 131.105 608 130C608 128.895 608.895 128 610 128C611.105 128 612 128.895 612 130Z" fill="#BABEC8"/>
<path d="M644 130C644 131.105 643.105 132 642 132C640.895 132 640 131.105 640 130C640 128.895 640.895 128 642 128C643.105 128 644 128.895 644 130Z" fill="#BABEC8"/>
<path d="M676 130C676 131.105 675.105 132 674 132C672.895 132 672 131.105 672 130C672 128.895 672.895 128 674 128C675.105 128 676 128.895 676 130Z" fill="#BABEC8"/>
<path d="M708 130C708 131.105 707.105 132 706 132C704.895 132 704 131.105 704 130C704 128.895 704.895 128 706 128C707.105 128 708 128.895 708 130Z" fill="#BABEC8"/>
<path d="M740 130C740 131.105 739.105 132 738 132C736.895 132 736 131.105 736 130C736 128.895 736.895 128 738 128C739.105 128 740 128.895 740 130Z" fill="#BABEC8"/>
<path d="M516 162C516 163.105 515.105 164 514 164C512.895 164 512 163.105 512 162C512 160.895 512.895 160 514 160C515.105 160 516 160.895 516 162Z" fill="#BABEC8"/>
<path d="M548 162C548 163.105 547.105 164 546 164C544.895 164 544 163.105 544 162C544 160.895 544.895 160 546 160C547.105 160 548 160.895 548 162Z" fill="#BABEC8"/>
<path d="M580 162C580 163.105 579.105 164 578 164C576.895 164 576 163.105 576 162C576 160.895 576.895 160 578 160C579.105 160 580 160.895 580 162Z" fill="#BABEC8"/>
<path d="M612 162C612 163.105 611.105 164 610 164C608.895 164 608 163.105 608 162C608 160.895 608.895 160 610 160C611.105 160 612 160.895 612 162Z" fill="#BABEC8"/>
<path d="M644 162C644 163.105 643.105 164 642 164C640.895 164 640 163.105 640 162C640 160.895 640.895 160 642 160C643.105 160 644 160.895 644 162Z" fill="#BABEC8"/>
<path d="M676 162C676 163.105 675.105 164 674 164C672.895 164 672 163.105 672 162C672 160.895 672.895 160 674 160C675.105 160 676 160.895 676 162Z" fill="#BABEC8"/>
<path d="M708 162C708 163.105 707.105 164 706 164C704.895 164 704 163.105 704 162C704 160.895 704.895 160 706 160C707.105 160 708 160.895 708 162Z" fill="#BABEC8"/>
<path d="M740 162C740 163.105 739.105 164 738 164C736.895 164 736 163.105 736 162C736 160.895 736.895 160 738 160C739.105 160 740 160.895 740 162Z" fill="#BABEC8"/>
<path d="M516 194C516 195.105 515.105 196 514 196C512.895 196 512 195.105 512 194C512 192.895 512.895 192 514 192C515.105 192 516 192.895 516 194Z" fill="#BABEC8"/>
<path d="M548 194C548 195.105 547.105 196 546 196C544.895 196 544 195.105 544 194C544 192.895 544.895 192 546 192C547.105 192 548 192.895 548 194Z" fill="#BABEC8"/>
<path d="M580 194C580 195.105 579.105 196 578 196C576.895 196 576 195.105 576 194C576 192.895 576.895 192 578 192C579.105 192 580 192.895 580 194Z" fill="#BABEC8"/>
<path d="M612 194C612 195.105 611.105 196 610 196C608.895 196 608 195.105 608 194C608 192.895 608.895 192 610 192C611.105 192 612 192.895 612 194Z" fill="#BABEC8"/>
<path d="M644 194C644 195.105 643.105 196 642 196C640.895 196 640 195.105 640 194C640 192.895 640.895 192 642 192C643.105 192 644 192.895 644 194Z" fill="#BABEC8"/>
<path d="M676 194C676 195.105 675.105 196 674 196C672.895 196 672 195.105 672 194C672 192.895 672.895 192 674 192C675.105 192 676 192.895 676 194Z" fill="#BABEC8"/>
<path d="M708 194C708 195.105 707.105 196 706 196C704.895 196 704 195.105 704 194C704 192.895 704.895 192 706 192C707.105 192 708 192.895 708 194Z" fill="#BABEC8"/>
<path d="M740 194C740 195.105 739.105 196 738 196C736.895 196 736 195.105 736 194C736 192.895 736.895 192 738 192C739.105 192 740 192.895 740 194Z" fill="#BABEC8"/>
<path d="M516 226C516 227.105 515.105 228 514 228C512.895 228 512 227.105 512 226C512 224.895 512.895 224 514 224C515.105 224 516 224.895 516 226Z" fill="#BABEC8"/>
<path d="M548 226C548 227.105 547.105 228 546 228C544.895 228 544 227.105 544 226C544 224.895 544.895 224 546 224C547.105 224 548 224.895 548 226Z" fill="#BABEC8"/>
<path d="M580 226C580 227.105 579.105 228 578 228C576.895 228 576 227.105 576 226C576 224.895 576.895 224 578 224C579.105 224 580 224.895 580 226Z" fill="#BABEC8"/>
<path d="M612 226C612 227.105 611.105 228 610 228C608.895 228 608 227.105 608 226C608 224.895 608.895 224 610 224C611.105 224 612 224.895 612 226Z" fill="#BABEC8"/>
<path d="M644 226C644 227.105 643.105 228 642 228C640.895 228 640 227.105 640 226C640 224.895 640.895 224 642 224C643.105 224 644 224.895 644 226Z" fill="#BABEC8"/>
<path d="M676 226C676 227.105 675.105 228 674 228C672.895 228 672 227.105 672 226C672 224.895 672.895 224 674 224C675.105 224 676 224.895 676 226Z" fill="#BABEC8"/>
<path d="M708 226C708 227.105 707.105 228 706 228C704.895 228 704 227.105 704 226C704 224.895 704.895 224 706 224C707.105 224 708 224.895 708 226Z" fill="#BABEC8"/>
<path d="M740 226C740 227.105 739.105 228 738 228C736.895 228 736 227.105 736 226C736 224.895 736.895 224 738 224C739.105 224 740 224.895 740 226Z" fill="#BABEC8"/>
<path d="M260 2C260 3.10457 259.105 4 258 4C256.895 4 256 3.10457 256 2C256 0.895431 256.895 0 258 0C259.105 0 260 0.895431 260 2Z" fill="#BABEC8"/>
<path d="M292 2C292 3.10457 291.105 4 290 4C288.895 4 288 3.10457 288 2C288 0.895431 288.895 0 290 0C291.105 0 292 0.895431 292 2Z" fill="#BABEC8"/>
<path d="M324 2C324 3.10457 323.105 4 322 4C320.895 4 320 3.10457 320 2C320 0.895431 320.895 0 322 0C323.105 0 324 0.895431 324 2Z" fill="#BABEC8"/>
<path d="M356 2C356 3.10457 355.105 4 354 4C352.895 4 352 3.10457 352 2C352 0.895431 352.895 0 354 0C355.105 0 356 0.895431 356 2Z" fill="#BABEC8"/>
<path d="M388 2C388 3.10457 387.105 4 386 4C384.895 4 384 3.10457 384 2C384 0.895431 384.895 0 386 0C387.105 0 388 0.895431 388 2Z" fill="#BABEC8"/>
<path d="M420 2C420 3.10457 419.105 4 418 4C416.895 4 416 3.10457 416 2C416 0.895431 416.895 0 418 0C419.105 0 420 0.895431 420 2Z" fill="#BABEC8"/>
<path d="M452 2C452 3.10457 451.105 4 450 4C448.895 4 448 3.10457 448 2C448 0.895431 448.895 0 450 0C451.105 0 452 0.895431 452 2Z" fill="#BABEC8"/>
<path d="M484 2C484 3.10457 483.105 4 482 4C480.895 4 480 3.10457 480 2C480 0.895431 480.895 0 482 0C483.105 0 484 0.895431 484 2Z" fill="#BABEC8"/>
<path d="M260 34C260 35.1046 259.105 36 258 36C256.895 36 256 35.1046 256 34C256 32.8954 256.895 32 258 32C259.105 32 260 32.8954 260 34Z" fill="#BABEC8"/>
<path d="M292 34C292 35.1046 291.105 36 290 36C288.895 36 288 35.1046 288 34C288 32.8954 288.895 32 290 32C291.105 32 292 32.8954 292 34Z" fill="#BABEC8"/>
<path d="M324 34C324 35.1046 323.105 36 322 36C320.895 36 320 35.1046 320 34C320 32.8954 320.895 32 322 32C323.105 32 324 32.8954 324 34Z" fill="#BABEC8"/>
<path d="M356 34C356 35.1046 355.105 36 354 36C352.895 36 352 35.1046 352 34C352 32.8954 352.895 32 354 32C355.105 32 356 32.8954 356 34Z" fill="#BABEC8"/>
<path d="M388 34C388 35.1046 387.105 36 386 36C384.895 36 384 35.1046 384 34C384 32.8954 384.895 32 386 32C387.105 32 388 32.8954 388 34Z" fill="#BABEC8"/>
<path d="M420 34C420 35.1046 419.105 36 418 36C416.895 36 416 35.1046 416 34C416 32.8954 416.895 32 418 32C419.105 32 420 32.8954 420 34Z" fill="#BABEC8"/>
<path d="M452 34C452 35.1046 451.105 36 450 36C448.895 36 448 35.1046 448 34C448 32.8954 448.895 32 450 32C451.105 32 452 32.8954 452 34Z" fill="#BABEC8"/>
<path d="M484 34C484 35.1046 483.105 36 482 36C480.895 36 480 35.1046 480 34C480 32.8954 480.895 32 482 32C483.105 32 484 32.8954 484 34Z" fill="#BABEC8"/>
<path d="M260 66C260 67.1046 259.105 68 258 68C256.895 68 256 67.1046 256 66C256 64.8954 256.895 64 258 64C259.105 64 260 64.8954 260 66Z" fill="#BABEC8"/>
<path d="M292 66C292 67.1046 291.105 68 290 68C288.895 68 288 67.1046 288 66C288 64.8954 288.895 64 290 64C291.105 64 292 64.8954 292 66Z" fill="#BABEC8"/>
<path d="M324 66C324 67.1046 323.105 68 322 68C320.895 68 320 67.1046 320 66C320 64.8954 320.895 64 322 64C323.105 64 324 64.8954 324 66Z" fill="#BABEC8"/>
<path d="M356 66C356 67.1046 355.105 68 354 68C352.895 68 352 67.1046 352 66C352 64.8954 352.895 64 354 64C355.105 64 356 64.8954 356 66Z" fill="#BABEC8"/>
<path d="M388 66C388 67.1046 387.105 68 386 68C384.895 68 384 67.1046 384 66C384 64.8954 384.895 64 386 64C387.105 64 388 64.8954 388 66Z" fill="#BABEC8"/>
<path d="M420 66C420 67.1046 419.105 68 418 68C416.895 68 416 67.1046 416 66C416 64.8954 416.895 64 418 64C419.105 64 420 64.8954 420 66Z" fill="#BABEC8"/>
<path d="M452 66C452 67.1046 451.105 68 450 68C448.895 68 448 67.1046 448 66C448 64.8954 448.895 64 450 64C451.105 64 452 64.8954 452 66Z" fill="#BABEC8"/>
<path d="M484 66C484 67.1046 483.105 68 482 68C480.895 68 480 67.1046 480 66C480 64.8954 480.895 64 482 64C483.105 64 484 64.8954 484 66Z" fill="#BABEC8"/>
<path d="M260 98C260 99.1046 259.105 100 258 100C256.895 100 256 99.1046 256 98C256 96.8954 256.895 96 258 96C259.105 96 260 96.8954 260 98Z" fill="#BABEC8"/>
<path d="M292 98C292 99.1046 291.105 100 290 100C288.895 100 288 99.1046 288 98C288 96.8954 288.895 96 290 96C291.105 96 292 96.8954 292 98Z" fill="#BABEC8"/>
<path d="M324 98C324 99.1046 323.105 100 322 100C320.895 100 320 99.1046 320 98C320 96.8954 320.895 96 322 96C323.105 96 324 96.8954 324 98Z" fill="#BABEC8"/>
<path d="M356 98C356 99.1046 355.105 100 354 100C352.895 100 352 99.1046 352 98C352 96.8954 352.895 96 354 96C355.105 96 356 96.8954 356 98Z" fill="#BABEC8"/>
<path d="M388 98C388 99.1046 387.105 100 386 100C384.895 100 384 99.1046 384 98C384 96.8954 384.895 96 386 96C387.105 96 388 96.8954 388 98Z" fill="#BABEC8"/>
<path d="M420 98C420 99.1046 419.105 100 418 100C416.895 100 416 99.1046 416 98C416 96.8954 416.895 96 418 96C419.105 96 420 96.8954 420 98Z" fill="#BABEC8"/>
<path d="M452 98C452 99.1046 451.105 100 450 100C448.895 100 448 99.1046 448 98C448 96.8954 448.895 96 450 96C451.105 96 452 96.8954 452 98Z" fill="#BABEC8"/>
<path d="M484 98C484 99.1046 483.105 100 482 100C480.895 100 480 99.1046 480 98C480 96.8954 480.895 96 482 96C483.105 96 484 96.8954 484 98Z" fill="#BABEC8"/>
<path d="M260 130C260 131.105 259.105 132 258 132C256.895 132 256 131.105 256 130C256 128.895 256.895 128 258 128C259.105 128 260 128.895 260 130Z" fill="#BABEC8"/>
<path d="M292 130C292 131.105 291.105 132 290 132C288.895 132 288 131.105 288 130C288 128.895 288.895 128 290 128C291.105 128 292 128.895 292 130Z" fill="#BABEC8"/>
<path d="M324 130C324 131.105 323.105 132 322 132C320.895 132 320 131.105 320 130C320 128.895 320.895 128 322 128C323.105 128 324 128.895 324 130Z" fill="#BABEC8"/>
<path d="M356 130C356 131.105 355.105 132 354 132C352.895 132 352 131.105 352 130C352 128.895 352.895 128 354 128C355.105 128 356 128.895 356 130Z" fill="#BABEC8"/>
<path d="M388 130C388 131.105 387.105 132 386 132C384.895 132 384 131.105 384 130C384 128.895 384.895 128 386 128C387.105 128 388 128.895 388 130Z" fill="#BABEC8"/>
<path d="M420 130C420 131.105 419.105 132 418 132C416.895 132 416 131.105 416 130C416 128.895 416.895 128 418 128C419.105 128 420 128.895 420 130Z" fill="#BABEC8"/>
<path d="M452 130C452 131.105 451.105 132 450 132C448.895 132 448 131.105 448 130C448 128.895 448.895 128 450 128C451.105 128 452 128.895 452 130Z" fill="#BABEC8"/>
<path d="M484 130C484 131.105 483.105 132 482 132C480.895 132 480 131.105 480 130C480 128.895 480.895 128 482 128C483.105 128 484 128.895 484 130Z" fill="#BABEC8"/>
<path d="M260 162C260 163.105 259.105 164 258 164C256.895 164 256 163.105 256 162C256 160.895 256.895 160 258 160C259.105 160 260 160.895 260 162Z" fill="#BABEC8"/>
<path d="M292 162C292 163.105 291.105 164 290 164C288.895 164 288 163.105 288 162C288 160.895 288.895 160 290 160C291.105 160 292 160.895 292 162Z" fill="#BABEC8"/>
<path d="M324 162C324 163.105 323.105 164 322 164C320.895 164 320 163.105 320 162C320 160.895 320.895 160 322 160C323.105 160 324 160.895 324 162Z" fill="#BABEC8"/>
<path d="M356 162C356 163.105 355.105 164 354 164C352.895 164 352 163.105 352 162C352 160.895 352.895 160 354 160C355.105 160 356 160.895 356 162Z" fill="#BABEC8"/>
<path d="M388 162C388 163.105 387.105 164 386 164C384.895 164 384 163.105 384 162C384 160.895 384.895 160 386 160C387.105 160 388 160.895 388 162Z" fill="#BABEC8"/>
<path d="M420 162C420 163.105 419.105 164 418 164C416.895 164 416 163.105 416 162C416 160.895 416.895 160 418 160C419.105 160 420 160.895 420 162Z" fill="#BABEC8"/>
<path d="M452 162C452 163.105 451.105 164 450 164C448.895 164 448 163.105 448 162C448 160.895 448.895 160 450 160C451.105 160 452 160.895 452 162Z" fill="#BABEC8"/>
<path d="M484 162C484 163.105 483.105 164 482 164C480.895 164 480 163.105 480 162C480 160.895 480.895 160 482 160C483.105 160 484 160.895 484 162Z" fill="#BABEC8"/>
<path d="M260 194C260 195.105 259.105 196 258 196C256.895 196 256 195.105 256 194C256 192.895 256.895 192 258 192C259.105 192 260 192.895 260 194Z" fill="#BABEC8"/>
<path d="M292 194C292 195.105 291.105 196 290 196C288.895 196 288 195.105 288 194C288 192.895 288.895 192 290 192C291.105 192 292 192.895 292 194Z" fill="#BABEC8"/>
<path d="M324 194C324 195.105 323.105 196 322 196C320.895 196 320 195.105 320 194C320 192.895 320.895 192 322 192C323.105 192 324 192.895 324 194Z" fill="#BABEC8"/>
<path d="M356 194C356 195.105 355.105 196 354 196C352.895 196 352 195.105 352 194C352 192.895 352.895 192 354 192C355.105 192 356 192.895 356 194Z" fill="#BABEC8"/>
<path d="M388 194C388 195.105 387.105 196 386 196C384.895 196 384 195.105 384 194C384 192.895 384.895 192 386 192C387.105 192 388 192.895 388 194Z" fill="#BABEC8"/>
<path d="M420 194C420 195.105 419.105 196 418 196C416.895 196 416 195.105 416 194C416 192.895 416.895 192 418 192C419.105 192 420 192.895 420 194Z" fill="#BABEC8"/>
<path d="M452 194C452 195.105 451.105 196 450 196C448.895 196 448 195.105 448 194C448 192.895 448.895 192 450 192C451.105 192 452 192.895 452 194Z" fill="#BABEC8"/>
<path d="M484 194C484 195.105 483.105 196 482 196C480.895 196 480 195.105 480 194C480 192.895 480.895 192 482 192C483.105 192 484 192.895 484 194Z" fill="#BABEC8"/>
<path d="M260 226C260 227.105 259.105 228 258 228C256.895 228 256 227.105 256 226C256 224.895 256.895 224 258 224C259.105 224 260 224.895 260 226Z" fill="#BABEC8"/>
<path d="M292 226C292 227.105 291.105 228 290 228C288.895 228 288 227.105 288 226C288 224.895 288.895 224 290 224C291.105 224 292 224.895 292 226Z" fill="#BABEC8"/>
<path d="M324 226C324 227.105 323.105 228 322 228C320.895 228 320 227.105 320 226C320 224.895 320.895 224 322 224C323.105 224 324 224.895 324 226Z" fill="#BABEC8"/>
<path d="M356 226C356 227.105 355.105 228 354 228C352.895 228 352 227.105 352 226C352 224.895 352.895 224 354 224C355.105 224 356 224.895 356 226Z" fill="#BABEC8"/>
<path d="M388 226C388 227.105 387.105 228 386 228C384.895 228 384 227.105 384 226C384 224.895 384.895 224 386 224C387.105 224 388 224.895 388 226Z" fill="#BABEC8"/>
<path d="M420 226C420 227.105 419.105 228 418 228C416.895 228 416 227.105 416 226C416 224.895 416.895 224 418 224C419.105 224 420 224.895 420 226Z" fill="#BABEC8"/>
<path d="M452 226C452 227.105 451.105 228 450 228C448.895 228 448 227.105 448 226C448 224.895 448.895 224 450 224C451.105 224 452 224.895 452 226Z" fill="#BABEC8"/>
<path d="M484 226C484 227.105 483.105 228 482 228C480.895 228 480 227.105 480 226C480 224.895 480.895 224 482 224C483.105 224 484 224.895 484 226Z" fill="#BABEC8"/>
<path d="M388 2C388 3.10457 387.105 4 386 4C384.895 4 384 3.10457 384 2C384 0.895431 384.895 0 386 0C387.105 0 388 0.895431 388 2Z" fill="#BABEC8"/>
<path d="M420 2C420 3.10457 419.105 4 418 4C416.895 4 416 3.10457 416 2C416 0.895431 416.895 0 418 0C419.105 0 420 0.895431 420 2Z" fill="#BABEC8"/>
<path d="M452 2C452 3.10457 451.105 4 450 4C448.895 4 448 3.10457 448 2C448 0.895431 448.895 0 450 0C451.105 0 452 0.895431 452 2Z" fill="#BABEC8"/>
<path d="M484 2C484 3.10457 483.105 4 482 4C480.895 4 480 3.10457 480 2C480 0.895431 480.895 0 482 0C483.105 0 484 0.895431 484 2Z" fill="#BABEC8"/>
<path d="M516 2C516 3.10457 515.105 4 514 4C512.895 4 512 3.10457 512 2C512 0.895431 512.895 0 514 0C515.105 0 516 0.895431 516 2Z" fill="#BABEC8"/>
<path d="M548 2C548 3.10457 547.105 4 546 4C544.895 4 544 3.10457 544 2C544 0.895431 544.895 0 546 0C547.105 0 548 0.895431 548 2Z" fill="#BABEC8"/>
<path d="M580 2C580 3.10457 579.105 4 578 4C576.895 4 576 3.10457 576 2C576 0.895431 576.895 0 578 0C579.105 0 580 0.895431 580 2Z" fill="#BABEC8"/>
<path d="M612 2C612 3.10457 611.105 4 610 4C608.895 4 608 3.10457 608 2C608 0.895431 608.895 0 610 0C611.105 0 612 0.895431 612 2Z" fill="#BABEC8"/>
<path d="M388 34C388 35.1046 387.105 36 386 36C384.895 36 384 35.1046 384 34C384 32.8954 384.895 32 386 32C387.105 32 388 32.8954 388 34Z" fill="#BABEC8"/>
<path d="M420 34C420 35.1046 419.105 36 418 36C416.895 36 416 35.1046 416 34C416 32.8954 416.895 32 418 32C419.105 32 420 32.8954 420 34Z" fill="#BABEC8"/>
<path d="M452 34C452 35.1046 451.105 36 450 36C448.895 36 448 35.1046 448 34C448 32.8954 448.895 32 450 32C451.105 32 452 32.8954 452 34Z" fill="#BABEC8"/>
<path d="M484 34C484 35.1046 483.105 36 482 36C480.895 36 480 35.1046 480 34C480 32.8954 480.895 32 482 32C483.105 32 484 32.8954 484 34Z" fill="#BABEC8"/>
<path d="M516 34C516 35.1046 515.105 36 514 36C512.895 36 512 35.1046 512 34C512 32.8954 512.895 32 514 32C515.105 32 516 32.8954 516 34Z" fill="#BABEC8"/>
<path d="M548 34C548 35.1046 547.105 36 546 36C544.895 36 544 35.1046 544 34C544 32.8954 544.895 32 546 32C547.105 32 548 32.8954 548 34Z" fill="#BABEC8"/>
<path d="M580 34C580 35.1046 579.105 36 578 36C576.895 36 576 35.1046 576 34C576 32.8954 576.895 32 578 32C579.105 32 580 32.8954 580 34Z" fill="#BABEC8"/>
<path d="M612 34C612 35.1046 611.105 36 610 36C608.895 36 608 35.1046 608 34C608 32.8954 608.895 32 610 32C611.105 32 612 32.8954 612 34Z" fill="#BABEC8"/>
<path d="M388 66C388 67.1046 387.105 68 386 68C384.895 68 384 67.1046 384 66C384 64.8954 384.895 64 386 64C387.105 64 388 64.8954 388 66Z" fill="#BABEC8"/>
<path d="M420 66C420 67.1046 419.105 68 418 68C416.895 68 416 67.1046 416 66C416 64.8954 416.895 64 418 64C419.105 64 420 64.8954 420 66Z" fill="#BABEC8"/>
<path d="M452 66C452 67.1046 451.105 68 450 68C448.895 68 448 67.1046 448 66C448 64.8954 448.895 64 450 64C451.105 64 452 64.8954 452 66Z" fill="#BABEC8"/>
<path d="M484 66C484 67.1046 483.105 68 482 68C480.895 68 480 67.1046 480 66C480 64.8954 480.895 64 482 64C483.105 64 484 64.8954 484 66Z" fill="#BABEC8"/>
<path d="M516 66C516 67.1046 515.105 68 514 68C512.895 68 512 67.1046 512 66C512 64.8954 512.895 64 514 64C515.105 64 516 64.8954 516 66Z" fill="#BABEC8"/>
<path d="M548 66C548 67.1046 547.105 68 546 68C544.895 68 544 67.1046 544 66C544 64.8954 544.895 64 546 64C547.105 64 548 64.8954 548 66Z" fill="#BABEC8"/>
<path d="M580 66C580 67.1046 579.105 68 578 68C576.895 68 576 67.1046 576 66C576 64.8954 576.895 64 578 64C579.105 64 580 64.8954 580 66Z" fill="#BABEC8"/>
<path d="M612 66C612 67.1046 611.105 68 610 68C608.895 68 608 67.1046 608 66C608 64.8954 608.895 64 610 64C611.105 64 612 64.8954 612 66Z" fill="#BABEC8"/>
<path d="M388 98C388 99.1046 387.105 100 386 100C384.895 100 384 99.1046 384 98C384 96.8954 384.895 96 386 96C387.105 96 388 96.8954 388 98Z" fill="#BABEC8"/>
<path d="M420 98C420 99.1046 419.105 100 418 100C416.895 100 416 99.1046 416 98C416 96.8954 416.895 96 418 96C419.105 96 420 96.8954 420 98Z" fill="#BABEC8"/>
<path d="M452 98C452 99.1046 451.105 100 450 100C448.895 100 448 99.1046 448 98C448 96.8954 448.895 96 450 96C451.105 96 452 96.8954 452 98Z" fill="#BABEC8"/>
<path d="M484 98C484 99.1046 483.105 100 482 100C480.895 100 480 99.1046 480 98C480 96.8954 480.895 96 482 96C483.105 96 484 96.8954 484 98Z" fill="#BABEC8"/>
<path d="M516 98C516 99.1046 515.105 100 514 100C512.895 100 512 99.1046 512 98C512 96.8954 512.895 96 514 96C515.105 96 516 96.8954 516 98Z" fill="#BABEC8"/>
<path d="M548 98C548 99.1046 547.105 100 546 100C544.895 100 544 99.1046 544 98C544 96.8954 544.895 96 546 96C547.105 96 548 96.8954 548 98Z" fill="#BABEC8"/>
<path d="M580 98C580 99.1046 579.105 100 578 100C576.895 100 576 99.1046 576 98C576 96.8954 576.895 96 578 96C579.105 96 580 96.8954 580 98Z" fill="#BABEC8"/>
<path d="M612 98C612 99.1046 611.105 100 610 100C608.895 100 608 99.1046 608 98C608 96.8954 608.895 96 610 96C611.105 96 612 96.8954 612 98Z" fill="#BABEC8"/>
<path d="M900 2C900 3.10457 899.105 4 898 4C896.895 4 896 3.10457 896 2C896 0.895431 896.895 0 898 0C899.105 0 900 0.895431 900 2Z" fill="#BABEC8"/>
<path d="M932 2C932 3.10457 931.105 4 930 4C928.895 4 928 3.10457 928 2C928 0.895431 928.895 0 930 0C931.105 0 932 0.895431 932 2Z" fill="#BABEC8"/>
<path d="M964 2C964 3.10457 963.105 4 962 4C960.895 4 960 3.10457 960 2C960 0.895431 960.895 0 962 0C963.105 0 964 0.895431 964 2Z" fill="#BABEC8"/>
<path d="M996 2C996 3.10457 995.105 4 994 4C992.895 4 992 3.10457 992 2C992 0.895431 992.895 0 994 0C995.105 0 996 0.895431 996 2Z" fill="#BABEC8"/>
<path d="M1028 2C1028 3.10457 1027.1 4 1026 4C1024.9 4 1024 3.10457 1024 2C1024 0.895431 1024.9 0 1026 0C1027.1 0 1028 0.895431 1028 2Z" fill="#BABEC8"/>
<path d="M1060 2C1060 3.10457 1059.1 4 1058 4C1056.9 4 1056 3.10457 1056 2C1056 0.895431 1056.9 0 1058 0C1059.1 0 1060 0.895431 1060 2Z" fill="#BABEC8"/>
<path d="M1092 2C1092 3.10457 1091.1 4 1090 4C1088.9 4 1088 3.10457 1088 2C1088 0.895431 1088.9 0 1090 0C1091.1 0 1092 0.895431 1092 2Z" fill="#BABEC8"/>
<path d="M1124 2C1124 3.10457 1123.1 4 1122 4C1120.9 4 1120 3.10457 1120 2C1120 0.895431 1120.9 0 1122 0C1123.1 0 1124 0.895431 1124 2Z" fill="#BABEC8"/>
<path d="M900 34C900 35.1046 899.105 36 898 36C896.895 36 896 35.1046 896 34C896 32.8954 896.895 32 898 32C899.105 32 900 32.8954 900 34Z" fill="#BABEC8"/>
<path d="M932 34C932 35.1046 931.105 36 930 36C928.895 36 928 35.1046 928 34C928 32.8954 928.895 32 930 32C931.105 32 932 32.8954 932 34Z" fill="#BABEC8"/>
<path d="M964 34C964 35.1046 963.105 36 962 36C960.895 36 960 35.1046 960 34C960 32.8954 960.895 32 962 32C963.105 32 964 32.8954 964 34Z" fill="#BABEC8"/>
<path d="M996 34C996 35.1046 995.105 36 994 36C992.895 36 992 35.1046 992 34C992 32.8954 992.895 32 994 32C995.105 32 996 32.8954 996 34Z" fill="#BABEC8"/>
<path d="M1028 34C1028 35.1046 1027.1 36 1026 36C1024.9 36 1024 35.1046 1024 34C1024 32.8954 1024.9 32 1026 32C1027.1 32 1028 32.8954 1028 34Z" fill="#BABEC8"/>
<path d="M1060 34C1060 35.1046 1059.1 36 1058 36C1056.9 36 1056 35.1046 1056 34C1056 32.8954 1056.9 32 1058 32C1059.1 32 1060 32.8954 1060 34Z" fill="#BABEC8"/>
<path d="M1092 34C1092 35.1046 1091.1 36 1090 36C1088.9 36 1088 35.1046 1088 34C1088 32.8954 1088.9 32 1090 32C1091.1 32 1092 32.8954 1092 34Z" fill="#BABEC8"/>
<path d="M1124 34C1124 35.1046 1123.1 36 1122 36C1120.9 36 1120 35.1046 1120 34C1120 32.8954 1120.9 32 1122 32C1123.1 32 1124 32.8954 1124 34Z" fill="#BABEC8"/>
<path d="M900 66C900 67.1046 899.105 68 898 68C896.895 68 896 67.1046 896 66C896 64.8954 896.895 64 898 64C899.105 64 900 64.8954 900 66Z" fill="#BABEC8"/>
<path d="M932 66C932 67.1046 931.105 68 930 68C928.895 68 928 67.1046 928 66C928 64.8954 928.895 64 930 64C931.105 64 932 64.8954 932 66Z" fill="#BABEC8"/>
<path d="M964 66C964 67.1046 963.105 68 962 68C960.895 68 960 67.1046 960 66C960 64.8954 960.895 64 962 64C963.105 64 964 64.8954 964 66Z" fill="#BABEC8"/>
<path d="M996 66C996 67.1046 995.105 68 994 68C992.895 68 992 67.1046 992 66C992 64.8954 992.895 64 994 64C995.105 64 996 64.8954 996 66Z" fill="#BABEC8"/>
<path d="M1028 66C1028 67.1046 1027.1 68 1026 68C1024.9 68 1024 67.1046 1024 66C1024 64.8954 1024.9 64 1026 64C1027.1 64 1028 64.8954 1028 66Z" fill="#BABEC8"/>
<path d="M1060 66C1060 67.1046 1059.1 68 1058 68C1056.9 68 1056 67.1046 1056 66C1056 64.8954 1056.9 64 1058 64C1059.1 64 1060 64.8954 1060 66Z" fill="#BABEC8"/>
<path d="M1092 66C1092 67.1046 1091.1 68 1090 68C1088.9 68 1088 67.1046 1088 66C1088 64.8954 1088.9 64 1090 64C1091.1 64 1092 64.8954 1092 66Z" fill="#BABEC8"/>
<path d="M1124 66C1124 67.1046 1123.1 68 1122 68C1120.9 68 1120 67.1046 1120 66C1120 64.8954 1120.9 64 1122 64C1123.1 64 1124 64.8954 1124 66Z" fill="#BABEC8"/>
<path d="M900 98C900 99.1046 899.105 100 898 100C896.895 100 896 99.1046 896 98C896 96.8954 896.895 96 898 96C899.105 96 900 96.8954 900 98Z" fill="#BABEC8"/>
<path d="M932 98C932 99.1046 931.105 100 930 100C928.895 100 928 99.1046 928 98C928 96.8954 928.895 96 930 96C931.105 96 932 96.8954 932 98Z" fill="#BABEC8"/>
<path d="M964 98C964 99.1046 963.105 100 962 100C960.895 100 960 99.1046 960 98C960 96.8954 960.895 96 962 96C963.105 96 964 96.8954 964 98Z" fill="#BABEC8"/>
<path d="M996 98C996 99.1046 995.105 100 994 100C992.895 100 992 99.1046 992 98C992 96.8954 992.895 96 994 96C995.105 96 996 96.8954 996 98Z" fill="#BABEC8"/>
<path d="M1028 98C1028 99.1046 1027.1 100 1026 100C1024.9 100 1024 99.1046 1024 98C1024 96.8954 1024.9 96 1026 96C1027.1 96 1028 96.8954 1028 98Z" fill="#BABEC8"/>
<path d="M1060 98C1060 99.1046 1059.1 100 1058 100C1056.9 100 1056 99.1046 1056 98C1056 96.8954 1056.9 96 1058 96C1059.1 96 1060 96.8954 1060 98Z" fill="#BABEC8"/>
<path d="M1092 98C1092 99.1046 1091.1 100 1090 100C1088.9 100 1088 99.1046 1088 98C1088 96.8954 1088.9 96 1090 96C1091.1 96 1092 96.8954 1092 98Z" fill="#BABEC8"/>
<path d="M1124 98C1124 99.1046 1123.1 100 1122 100C1120.9 100 1120 99.1046 1120 98C1120 96.8954 1120.9 96 1122 96C1123.1 96 1124 96.8954 1124 98Z" fill="#BABEC8"/>
<path d="M388 130C388 131.105 387.105 132 386 132C384.895 132 384 131.105 384 130C384 128.895 384.895 128 386 128C387.105 128 388 128.895 388 130Z" fill="#BABEC8"/>
<path d="M420 130C420 131.105 419.105 132 418 132C416.895 132 416 131.105 416 130C416 128.895 416.895 128 418 128C419.105 128 420 128.895 420 130Z" fill="#BABEC8"/>
<path d="M452 130C452 131.105 451.105 132 450 132C448.895 132 448 131.105 448 130C448 128.895 448.895 128 450 128C451.105 128 452 128.895 452 130Z" fill="#BABEC8"/>
<path d="M484 130C484 131.105 483.105 132 482 132C480.895 132 480 131.105 480 130C480 128.895 480.895 128 482 128C483.105 128 484 128.895 484 130Z" fill="#BABEC8"/>
<path d="M516 130C516 131.105 515.105 132 514 132C512.895 132 512 131.105 512 130C512 128.895 512.895 128 514 128C515.105 128 516 128.895 516 130Z" fill="#BABEC8"/>
<path d="M548 130C548 131.105 547.105 132 546 132C544.895 132 544 131.105 544 130C544 128.895 544.895 128 546 128C547.105 128 548 128.895 548 130Z" fill="#BABEC8"/>
<path d="M580 130C580 131.105 579.105 132 578 132C576.895 132 576 131.105 576 130C576 128.895 576.895 128 578 128C579.105 128 580 128.895 580 130Z" fill="#BABEC8"/>
<path d="M612 130C612 131.105 611.105 132 610 132C608.895 132 608 131.105 608 130C608 128.895 608.895 128 610 128C611.105 128 612 128.895 612 130Z" fill="#BABEC8"/>
<path d="M388 162C388 163.105 387.105 164 386 164C384.895 164 384 163.105 384 162C384 160.895 384.895 160 386 160C387.105 160 388 160.895 388 162Z" fill="#BABEC8"/>
<path d="M420 162C420 163.105 419.105 164 418 164C416.895 164 416 163.105 416 162C416 160.895 416.895 160 418 160C419.105 160 420 160.895 420 162Z" fill="#BABEC8"/>
<path d="M452 162C452 163.105 451.105 164 450 164C448.895 164 448 163.105 448 162C448 160.895 448.895 160 450 160C451.105 160 452 160.895 452 162Z" fill="#BABEC8"/>
<path d="M484 162C484 163.105 483.105 164 482 164C480.895 164 480 163.105 480 162C480 160.895 480.895 160 482 160C483.105 160 484 160.895 484 162Z" fill="#BABEC8"/>
<path d="M516 162C516 163.105 515.105 164 514 164C512.895 164 512 163.105 512 162C512 160.895 512.895 160 514 160C515.105 160 516 160.895 516 162Z" fill="#BABEC8"/>
<path d="M548 162C548 163.105 547.105 164 546 164C544.895 164 544 163.105 544 162C544 160.895 544.895 160 546 160C547.105 160 548 160.895 548 162Z" fill="#BABEC8"/>
<path d="M580 162C580 163.105 579.105 164 578 164C576.895 164 576 163.105 576 162C576 160.895 576.895 160 578 160C579.105 160 580 160.895 580 162Z" fill="#BABEC8"/>
<path d="M612 162C612 163.105 611.105 164 610 164C608.895 164 608 163.105 608 162C608 160.895 608.895 160 610 160C611.105 160 612 160.895 612 162Z" fill="#BABEC8"/>
<path d="M388 194C388 195.105 387.105 196 386 196C384.895 196 384 195.105 384 194C384 192.895 384.895 192 386 192C387.105 192 388 192.895 388 194Z" fill="#BABEC8"/>
<path d="M420 194C420 195.105 419.105 196 418 196C416.895 196 416 195.105 416 194C416 192.895 416.895 192 418 192C419.105 192 420 192.895 420 194Z" fill="#BABEC8"/>
<path d="M452 194C452 195.105 451.105 196 450 196C448.895 196 448 195.105 448 194C448 192.895 448.895 192 450 192C451.105 192 452 192.895 452 194Z" fill="#BABEC8"/>
<path d="M484 194C484 195.105 483.105 196 482 196C480.895 196 480 195.105 480 194C480 192.895 480.895 192 482 192C483.105 192 484 192.895 484 194Z" fill="#BABEC8"/>
<path d="M516 194C516 195.105 515.105 196 514 196C512.895 196 512 195.105 512 194C512 192.895 512.895 192 514 192C515.105 192 516 192.895 516 194Z" fill="#BABEC8"/>
<path d="M548 194C548 195.105 547.105 196 546 196C544.895 196 544 195.105 544 194C544 192.895 544.895 192 546 192C547.105 192 548 192.895 548 194Z" fill="#BABEC8"/>
<path d="M580 194C580 195.105 579.105 196 578 196C576.895 196 576 195.105 576 194C576 192.895 576.895 192 578 192C579.105 192 580 192.895 580 194Z" fill="#BABEC8"/>
<path d="M612 194C612 195.105 611.105 196 610 196C608.895 196 608 195.105 608 194C608 192.895 608.895 192 610 192C611.105 192 612 192.895 612 194Z" fill="#BABEC8"/>
<path d="M388 226C388 227.105 387.105 228 386 228C384.895 228 384 227.105 384 226C384 224.895 384.895 224 386 224C387.105 224 388 224.895 388 226Z" fill="#BABEC8"/>
<path d="M420 226C420 227.105 419.105 228 418 228C416.895 228 416 227.105 416 226C416 224.895 416.895 224 418 224C419.105 224 420 224.895 420 226Z" fill="#BABEC8"/>
<path d="M452 226C452 227.105 451.105 228 450 228C448.895 228 448 227.105 448 226C448 224.895 448.895 224 450 224C451.105 224 452 224.895 452 226Z" fill="#BABEC8"/>
<path d="M484 226C484 227.105 483.105 228 482 228C480.895 228 480 227.105 480 226C480 224.895 480.895 224 482 224C483.105 224 484 224.895 484 226Z" fill="#BABEC8"/>
<path d="M516 226C516 227.105 515.105 228 514 228C512.895 228 512 227.105 512 226C512 224.895 512.895 224 514 224C515.105 224 516 224.895 516 226Z" fill="#BABEC8"/>
<path d="M548 226C548 227.105 547.105 228 546 228C544.895 228 544 227.105 544 226C544 224.895 544.895 224 546 224C547.105 224 548 224.895 548 226Z" fill="#BABEC8"/>
<path d="M580 226C580 227.105 579.105 228 578 228C576.895 228 576 227.105 576 226C576 224.895 576.895 224 578 224C579.105 224 580 224.895 580 226Z" fill="#BABEC8"/>
<path d="M612 226C612 227.105 611.105 228 610 228C608.895 228 608 227.105 608 226C608 224.895 608.895 224 610 224C611.105 224 612 224.895 612 226Z" fill="#BABEC8"/>
<path d="M900 130C900 131.105 899.105 132 898 132C896.895 132 896 131.105 896 130C896 128.895 896.895 128 898 128C899.105 128 900 128.895 900 130Z" fill="#BABEC8"/>
<path d="M932 130C932 131.105 931.105 132 930 132C928.895 132 928 131.105 928 130C928 128.895 928.895 128 930 128C931.105 128 932 128.895 932 130Z" fill="#BABEC8"/>
<path d="M964 130C964 131.105 963.105 132 962 132C960.895 132 960 131.105 960 130C960 128.895 960.895 128 962 128C963.105 128 964 128.895 964 130Z" fill="#BABEC8"/>
<path d="M996 130C996 131.105 995.105 132 994 132C992.895 132 992 131.105 992 130C992 128.895 992.895 128 994 128C995.105 128 996 128.895 996 130Z" fill="#BABEC8"/>
<path d="M1028 130C1028 131.105 1027.1 132 1026 132C1024.9 132 1024 131.105 1024 130C1024 128.895 1024.9 128 1026 128C1027.1 128 1028 128.895 1028 130Z" fill="#BABEC8"/>
<path d="M1060 130C1060 131.105 1059.1 132 1058 132C1056.9 132 1056 131.105 1056 130C1056 128.895 1056.9 128 1058 128C1059.1 128 1060 128.895 1060 130Z" fill="#BABEC8"/>
<path d="M1092 130C1092 131.105 1091.1 132 1090 132C1088.9 132 1088 131.105 1088 130C1088 128.895 1088.9 128 1090 128C1091.1 128 1092 128.895 1092 130Z" fill="#BABEC8"/>
<path d="M1124 130C1124 131.105 1123.1 132 1122 132C1120.9 132 1120 131.105 1120 130C1120 128.895 1120.9 128 1122 128C1123.1 128 1124 128.895 1124 130Z" fill="#BABEC8"/>
<path d="M900 162C900 163.105 899.105 164 898 164C896.895 164 896 163.105 896 162C896 160.895 896.895 160 898 160C899.105 160 900 160.895 900 162Z" fill="#BABEC8"/>
<path d="M932 162C932 163.105 931.105 164 930 164C928.895 164 928 163.105 928 162C928 160.895 928.895 160 930 160C931.105 160 932 160.895 932 162Z" fill="#BABEC8"/>
<path d="M964 162C964 163.105 963.105 164 962 164C960.895 164 960 163.105 960 162C960 160.895 960.895 160 962 160C963.105 160 964 160.895 964 162Z" fill="#BABEC8"/>
<path d="M996 162C996 163.105 995.105 164 994 164C992.895 164 992 163.105 992 162C992 160.895 992.895 160 994 160C995.105 160 996 160.895 996 162Z" fill="#BABEC8"/>
<path d="M1028 162C1028 163.105 1027.1 164 1026 164C1024.9 164 1024 163.105 1024 162C1024 160.895 1024.9 160 1026 160C1027.1 160 1028 160.895 1028 162Z" fill="#BABEC8"/>
<path d="M1060 162C1060 163.105 1059.1 164 1058 164C1056.9 164 1056 163.105 1056 162C1056 160.895 1056.9 160 1058 160C1059.1 160 1060 160.895 1060 162Z" fill="#BABEC8"/>
<path d="M1092 162C1092 163.105 1091.1 164 1090 164C1088.9 164 1088 163.105 1088 162C1088 160.895 1088.9 160 1090 160C1091.1 160 1092 160.895 1092 162Z" fill="#BABEC8"/>
<path d="M1124 162C1124 163.105 1123.1 164 1122 164C1120.9 164 1120 163.105 1120 162C1120 160.895 1120.9 160 1122 160C1123.1 160 1124 160.895 1124 162Z" fill="#BABEC8"/>
<path d="M900 194C900 195.105 899.105 196 898 196C896.895 196 896 195.105 896 194C896 192.895 896.895 192 898 192C899.105 192 900 192.895 900 194Z" fill="#BABEC8"/>
<path d="M932 194C932 195.105 931.105 196 930 196C928.895 196 928 195.105 928 194C928 192.895 928.895 192 930 192C931.105 192 932 192.895 932 194Z" fill="#BABEC8"/>
<path d="M964 194C964 195.105 963.105 196 962 196C960.895 196 960 195.105 960 194C960 192.895 960.895 192 962 192C963.105 192 964 192.895 964 194Z" fill="#BABEC8"/>
<path d="M996 194C996 195.105 995.105 196 994 196C992.895 196 992 195.105 992 194C992 192.895 992.895 192 994 192C995.105 192 996 192.895 996 194Z" fill="#BABEC8"/>
<path d="M1028 194C1028 195.105 1027.1 196 1026 196C1024.9 196 1024 195.105 1024 194C1024 192.895 1024.9 192 1026 192C1027.1 192 1028 192.895 1028 194Z" fill="#BABEC8"/>
<path d="M1060 194C1060 195.105 1059.1 196 1058 196C1056.9 196 1056 195.105 1056 194C1056 192.895 1056.9 192 1058 192C1059.1 192 1060 192.895 1060 194Z" fill="#BABEC8"/>
<path d="M1092 194C1092 195.105 1091.1 196 1090 196C1088.9 196 1088 195.105 1088 194C1088 192.895 1088.9 192 1090 192C1091.1 192 1092 192.895 1092 194Z" fill="#BABEC8"/>
<path d="M1124 194C1124 195.105 1123.1 196 1122 196C1120.9 196 1120 195.105 1120 194C1120 192.895 1120.9 192 1122 192C1123.1 192 1124 192.895 1124 194Z" fill="#BABEC8"/>
<path d="M900 226C900 227.105 899.105 228 898 228C896.895 228 896 227.105 896 226C896 224.895 896.895 224 898 224C899.105 224 900 224.895 900 226Z" fill="#BABEC8"/>
<path d="M932 226C932 227.105 931.105 228 930 228C928.895 228 928 227.105 928 226C928 224.895 928.895 224 930 224C931.105 224 932 224.895 932 226Z" fill="#BABEC8"/>
<path d="M964 226C964 227.105 963.105 228 962 228C960.895 228 960 227.105 960 226C960 224.895 960.895 224 962 224C963.105 224 964 224.895 964 226Z" fill="#BABEC8"/>
<path d="M996 226C996 227.105 995.105 228 994 228C992.895 228 992 227.105 992 226C992 224.895 992.895 224 994 224C995.105 224 996 224.895 996 226Z" fill="#BABEC8"/>
<path d="M1028 226C1028 227.105 1027.1 228 1026 228C1024.9 228 1024 227.105 1024 226C1024 224.895 1024.9 224 1026 224C1027.1 224 1028 224.895 1028 226Z" fill="#BABEC8"/>
<path d="M1060 226C1060 227.105 1059.1 228 1058 228C1056.9 228 1056 227.105 1056 226C1056 224.895 1056.9 224 1058 224C1059.1 224 1060 224.895 1060 226Z" fill="#BABEC8"/>
<path d="M1092 226C1092 227.105 1091.1 228 1090 228C1088.9 228 1088 227.105 1088 226C1088 224.895 1088.9 224 1090 224C1091.1 224 1092 224.895 1092 226Z" fill="#BABEC8"/>
<path d="M1124 226C1124 227.105 1123.1 228 1122 228C1120.9 228 1120 227.105 1120 226C1120 224.895 1120.9 224 1122 224C1123.1 224 1124 224.895 1124 226Z" fill="#BABEC8"/>
<path d="M900 130C900 131.105 899.105 132 898 132C896.895 132 896 131.105 896 130C896 128.895 896.895 128 898 128C899.105 128 900 128.895 900 130Z" fill="#BABEC8"/>
<path d="M932 130C932 131.105 931.105 132 930 132C928.895 132 928 131.105 928 130C928 128.895 928.895 128 930 128C931.105 128 932 128.895 932 130Z" fill="#BABEC8"/>
<path d="M964 130C964 131.105 963.105 132 962 132C960.895 132 960 131.105 960 130C960 128.895 960.895 128 962 128C963.105 128 964 128.895 964 130Z" fill="#BABEC8"/>
<path d="M996 130C996 131.105 995.105 132 994 132C992.895 132 992 131.105 992 130C992 128.895 992.895 128 994 128C995.105 128 996 128.895 996 130Z" fill="#BABEC8"/>
<path d="M1028 130C1028 131.105 1027.1 132 1026 132C1024.9 132 1024 131.105 1024 130C1024 128.895 1024.9 128 1026 128C1027.1 128 1028 128.895 1028 130Z" fill="#BABEC8"/>
<path d="M1060 130C1060 131.105 1059.1 132 1058 132C1056.9 132 1056 131.105 1056 130C1056 128.895 1056.9 128 1058 128C1059.1 128 1060 128.895 1060 130Z" fill="#BABEC8"/>
<path d="M1092 130C1092 131.105 1091.1 132 1090 132C1088.9 132 1088 131.105 1088 130C1088 128.895 1088.9 128 1090 128C1091.1 128 1092 128.895 1092 130Z" fill="#BABEC8"/>
<path d="M1124 130C1124 131.105 1123.1 132 1122 132C1120.9 132 1120 131.105 1120 130C1120 128.895 1120.9 128 1122 128C1123.1 128 1124 128.895 1124 130Z" fill="#BABEC8"/>
<path d="M900 162C900 163.105 899.105 164 898 164C896.895 164 896 163.105 896 162C896 160.895 896.895 160 898 160C899.105 160 900 160.895 900 162Z" fill="#BABEC8"/>
<path d="M932 162C932 163.105 931.105 164 930 164C928.895 164 928 163.105 928 162C928 160.895 928.895 160 930 160C931.105 160 932 160.895 932 162Z" fill="#BABEC8"/>
<path d="M964 162C964 163.105 963.105 164 962 164C960.895 164 960 163.105 960 162C960 160.895 960.895 160 962 160C963.105 160 964 160.895 964 162Z" fill="#BABEC8"/>
<path d="M996 162C996 163.105 995.105 164 994 164C992.895 164 992 163.105 992 162C992 160.895 992.895 160 994 160C995.105 160 996 160.895 996 162Z" fill="#BABEC8"/>
<path d="M1028 162C1028 163.105 1027.1 164 1026 164C1024.9 164 1024 163.105 1024 162C1024 160.895 1024.9 160 1026 160C1027.1 160 1028 160.895 1028 162Z" fill="#BABEC8"/>
<path d="M1060 162C1060 163.105 1059.1 164 1058 164C1056.9 164 1056 163.105 1056 162C1056 160.895 1056.9 160 1058 160C1059.1 160 1060 160.895 1060 162Z" fill="#BABEC8"/>
<path d="M1092 162C1092 163.105 1091.1 164 1090 164C1088.9 164 1088 163.105 1088 162C1088 160.895 1088.9 160 1090 160C1091.1 160 1092 160.895 1092 162Z" fill="#BABEC8"/>
<path d="M1124 162C1124 163.105 1123.1 164 1122 164C1120.9 164 1120 163.105 1120 162C1120 160.895 1120.9 160 1122 160C1123.1 160 1124 160.895 1124 162Z" fill="#BABEC8"/>
<path d="M900 194C900 195.105 899.105 196 898 196C896.895 196 896 195.105 896 194C896 192.895 896.895 192 898 192C899.105 192 900 192.895 900 194Z" fill="#BABEC8"/>
<path d="M932 194C932 195.105 931.105 196 930 196C928.895 196 928 195.105 928 194C928 192.895 928.895 192 930 192C931.105 192 932 192.895 932 194Z" fill="#BABEC8"/>
<path d="M964 194C964 195.105 963.105 196 962 196C960.895 196 960 195.105 960 194C960 192.895 960.895 192 962 192C963.105 192 964 192.895 964 194Z" fill="#BABEC8"/>
<path d="M996 194C996 195.105 995.105 196 994 196C992.895 196 992 195.105 992 194C992 192.895 992.895 192 994 192C995.105 192 996 192.895 996 194Z" fill="#BABEC8"/>
<path d="M1028 194C1028 195.105 1027.1 196 1026 196C1024.9 196 1024 195.105 1024 194C1024 192.895 1024.9 192 1026 192C1027.1 192 1028 192.895 1028 194Z" fill="#BABEC8"/>
<path d="M1060 194C1060 195.105 1059.1 196 1058 196C1056.9 196 1056 195.105 1056 194C1056 192.895 1056.9 192 1058 192C1059.1 192 1060 192.895 1060 194Z" fill="#BABEC8"/>
<path d="M1092 194C1092 195.105 1091.1 196 1090 196C1088.9 196 1088 195.105 1088 194C1088 192.895 1088.9 192 1090 192C1091.1 192 1092 192.895 1092 194Z" fill="#BABEC8"/>
<path d="M1124 194C1124 195.105 1123.1 196 1122 196C1120.9 196 1120 195.105 1120 194C1120 192.895 1120.9 192 1122 192C1123.1 192 1124 192.895 1124 194Z" fill="#BABEC8"/>
<path d="M900 226C900 227.105 899.105 228 898 228C896.895 228 896 227.105 896 226C896 224.895 896.895 224 898 224C899.105 224 900 224.895 900 226Z" fill="#BABEC8"/>
<path d="M932 226C932 227.105 931.105 228 930 228C928.895 228 928 227.105 928 226C928 224.895 928.895 224 930 224C931.105 224 932 224.895 932 226Z" fill="#BABEC8"/>
<path d="M964 226C964 227.105 963.105 228 962 228C960.895 228 960 227.105 960 226C960 224.895 960.895 224 962 224C963.105 224 964 224.895 964 226Z" fill="#BABEC8"/>
<path d="M996 226C996 227.105 995.105 228 994 228C992.895 228 992 227.105 992 226C992 224.895 992.895 224 994 224C995.105 224 996 224.895 996 226Z" fill="#BABEC8"/>
<path d="M1028 226C1028 227.105 1027.1 228 1026 228C1024.9 228 1024 227.105 1024 226C1024 224.895 1024.9 224 1026 224C1027.1 224 1028 224.895 1028 226Z" fill="#BABEC8"/>
<path d="M1060 226C1060 227.105 1059.1 228 1058 228C1056.9 228 1056 227.105 1056 226C1056 224.895 1056.9 224 1058 224C1059.1 224 1060 224.895 1060 226Z" fill="#BABEC8"/>
<path d="M1092 226C1092 227.105 1091.1 228 1090 228C1088.9 228 1088 227.105 1088 226C1088 224.895 1088.9 224 1090 224C1091.1 224 1092 224.895 1092 226Z" fill="#BABEC8"/>
<path d="M1124 226C1124 227.105 1123.1 228 1122 228C1120.9 228 1120 227.105 1120 226C1120 224.895 1120.9 224 1122 224C1123.1 224 1124 224.895 1124 226Z" fill="#BABEC8"/>
<path d="M644 2C644 3.10457 643.105 4 642 4C640.895 4 640 3.10457 640 2C640 0.895431 640.895 0 642 0C643.105 0 644 0.895431 644 2Z" fill="#BABEC8"/>
<path d="M676 2C676 3.10457 675.105 4 674 4C672.895 4 672 3.10457 672 2C672 0.895431 672.895 0 674 0C675.105 0 676 0.895431 676 2Z" fill="#BABEC8"/>
<path d="M708 2C708 3.10457 707.105 4 706 4C704.895 4 704 3.10457 704 2C704 0.895431 704.895 0 706 0C707.105 0 708 0.895431 708 2Z" fill="#BABEC8"/>
<path d="M740 2C740 3.10457 739.105 4 738 4C736.895 4 736 3.10457 736 2C736 0.895431 736.895 0 738 0C739.105 0 740 0.895431 740 2Z" fill="#BABEC8"/>
<path d="M772 2C772 3.10457 771.105 4 770 4C768.895 4 768 3.10457 768 2C768 0.895431 768.895 0 770 0C771.105 0 772 0.895431 772 2Z" fill="#BABEC8"/>
<path d="M804 2C804 3.10457 803.105 4 802 4C800.895 4 800 3.10457 800 2C800 0.895431 800.895 0 802 0C803.105 0 804 0.895431 804 2Z" fill="#BABEC8"/>
<path d="M836 2C836 3.10457 835.105 4 834 4C832.895 4 832 3.10457 832 2C832 0.895431 832.895 0 834 0C835.105 0 836 0.895431 836 2Z" fill="#BABEC8"/>
<path d="M868 2C868 3.10457 867.105 4 866 4C864.895 4 864 3.10457 864 2C864 0.895431 864.895 0 866 0C867.105 0 868 0.895431 868 2Z" fill="#BABEC8"/>
<path d="M644 34C644 35.1046 643.105 36 642 36C640.895 36 640 35.1046 640 34C640 32.8954 640.895 32 642 32C643.105 32 644 32.8954 644 34Z" fill="#BABEC8"/>
<path d="M676 34C676 35.1046 675.105 36 674 36C672.895 36 672 35.1046 672 34C672 32.8954 672.895 32 674 32C675.105 32 676 32.8954 676 34Z" fill="#BABEC8"/>
<path d="M708 34C708 35.1046 707.105 36 706 36C704.895 36 704 35.1046 704 34C704 32.8954 704.895 32 706 32C707.105 32 708 32.8954 708 34Z" fill="#BABEC8"/>
<path d="M740 34C740 35.1046 739.105 36 738 36C736.895 36 736 35.1046 736 34C736 32.8954 736.895 32 738 32C739.105 32 740 32.8954 740 34Z" fill="#BABEC8"/>
<path d="M772 34C772 35.1046 771.105 36 770 36C768.895 36 768 35.1046 768 34C768 32.8954 768.895 32 770 32C771.105 32 772 32.8954 772 34Z" fill="#BABEC8"/>
<path d="M804 34C804 35.1046 803.105 36 802 36C800.895 36 800 35.1046 800 34C800 32.8954 800.895 32 802 32C803.105 32 804 32.8954 804 34Z" fill="#BABEC8"/>
<path d="M836 34C836 35.1046 835.105 36 834 36C832.895 36 832 35.1046 832 34C832 32.8954 832.895 32 834 32C835.105 32 836 32.8954 836 34Z" fill="#BABEC8"/>
<path d="M868 34C868 35.1046 867.105 36 866 36C864.895 36 864 35.1046 864 34C864 32.8954 864.895 32 866 32C867.105 32 868 32.8954 868 34Z" fill="#BABEC8"/>
<path d="M644 66C644 67.1046 643.105 68 642 68C640.895 68 640 67.1046 640 66C640 64.8954 640.895 64 642 64C643.105 64 644 64.8954 644 66Z" fill="#BABEC8"/>
<path d="M676 66C676 67.1046 675.105 68 674 68C672.895 68 672 67.1046 672 66C672 64.8954 672.895 64 674 64C675.105 64 676 64.8954 676 66Z" fill="#BABEC8"/>
<path d="M708 66C708 67.1046 707.105 68 706 68C704.895 68 704 67.1046 704 66C704 64.8954 704.895 64 706 64C707.105 64 708 64.8954 708 66Z" fill="#BABEC8"/>
<path d="M740 66C740 67.1046 739.105 68 738 68C736.895 68 736 67.1046 736 66C736 64.8954 736.895 64 738 64C739.105 64 740 64.8954 740 66Z" fill="#BABEC8"/>
<path d="M772 66C772 67.1046 771.105 68 770 68C768.895 68 768 67.1046 768 66C768 64.8954 768.895 64 770 64C771.105 64 772 64.8954 772 66Z" fill="#BABEC8"/>
<path d="M804 66C804 67.1046 803.105 68 802 68C800.895 68 800 67.1046 800 66C800 64.8954 800.895 64 802 64C803.105 64 804 64.8954 804 66Z" fill="#BABEC8"/>
<path d="M836 66C836 67.1046 835.105 68 834 68C832.895 68 832 67.1046 832 66C832 64.8954 832.895 64 834 64C835.105 64 836 64.8954 836 66Z" fill="#BABEC8"/>
<path d="M868 66C868 67.1046 867.105 68 866 68C864.895 68 864 67.1046 864 66C864 64.8954 864.895 64 866 64C867.105 64 868 64.8954 868 66Z" fill="#BABEC8"/>
<path d="M644 98C644 99.1046 643.105 100 642 100C640.895 100 640 99.1046 640 98C640 96.8954 640.895 96 642 96C643.105 96 644 96.8954 644 98Z" fill="#BABEC8"/>
<path d="M676 98C676 99.1046 675.105 100 674 100C672.895 100 672 99.1046 672 98C672 96.8954 672.895 96 674 96C675.105 96 676 96.8954 676 98Z" fill="#BABEC8"/>
<path d="M708 98C708 99.1046 707.105 100 706 100C704.895 100 704 99.1046 704 98C704 96.8954 704.895 96 706 96C707.105 96 708 96.8954 708 98Z" fill="#BABEC8"/>
<path d="M740 98C740 99.1046 739.105 100 738 100C736.895 100 736 99.1046 736 98C736 96.8954 736.895 96 738 96C739.105 96 740 96.8954 740 98Z" fill="#BABEC8"/>
<path d="M772 98C772 99.1046 771.105 100 770 100C768.895 100 768 99.1046 768 98C768 96.8954 768.895 96 770 96C771.105 96 772 96.8954 772 98Z" fill="#BABEC8"/>
<path d="M804 98C804 99.1046 803.105 100 802 100C800.895 100 800 99.1046 800 98C800 96.8954 800.895 96 802 96C803.105 96 804 96.8954 804 98Z" fill="#BABEC8"/>
<path d="M836 98C836 99.1046 835.105 100 834 100C832.895 100 832 99.1046 832 98C832 96.8954 832.895 96 834 96C835.105 96 836 96.8954 836 98Z" fill="#BABEC8"/>
<path d="M868 98C868 99.1046 867.105 100 866 100C864.895 100 864 99.1046 864 98C864 96.8954 864.895 96 866 96C867.105 96 868 96.8954 868 98Z" fill="#BABEC8"/>
<path d="M644 130C644 131.105 643.105 132 642 132C640.895 132 640 131.105 640 130C640 128.895 640.895 128 642 128C643.105 128 644 128.895 644 130Z" fill="#BABEC8"/>
<path d="M676 130C676 131.105 675.105 132 674 132C672.895 132 672 131.105 672 130C672 128.895 672.895 128 674 128C675.105 128 676 128.895 676 130Z" fill="#BABEC8"/>
<path d="M708 130C708 131.105 707.105 132 706 132C704.895 132 704 131.105 704 130C704 128.895 704.895 128 706 128C707.105 128 708 128.895 708 130Z" fill="#BABEC8"/>
<path d="M740 130C740 131.105 739.105 132 738 132C736.895 132 736 131.105 736 130C736 128.895 736.895 128 738 128C739.105 128 740 128.895 740 130Z" fill="#BABEC8"/>
<path d="M772 130C772 131.105 771.105 132 770 132C768.895 132 768 131.105 768 130C768 128.895 768.895 128 770 128C771.105 128 772 128.895 772 130Z" fill="#BABEC8"/>
<path d="M804 130C804 131.105 803.105 132 802 132C800.895 132 800 131.105 800 130C800 128.895 800.895 128 802 128C803.105 128 804 128.895 804 130Z" fill="#BABEC8"/>
<path d="M836 130C836 131.105 835.105 132 834 132C832.895 132 832 131.105 832 130C832 128.895 832.895 128 834 128C835.105 128 836 128.895 836 130Z" fill="#BABEC8"/>
<path d="M868 130C868 131.105 867.105 132 866 132C864.895 132 864 131.105 864 130C864 128.895 864.895 128 866 128C867.105 128 868 128.895 868 130Z" fill="#BABEC8"/>
<path d="M644 162C644 163.105 643.105 164 642 164C640.895 164 640 163.105 640 162C640 160.895 640.895 160 642 160C643.105 160 644 160.895 644 162Z" fill="#BABEC8"/>
<path d="M676 162C676 163.105 675.105 164 674 164C672.895 164 672 163.105 672 162C672 160.895 672.895 160 674 160C675.105 160 676 160.895 676 162Z" fill="#BABEC8"/>
<path d="M708 162C708 163.105 707.105 164 706 164C704.895 164 704 163.105 704 162C704 160.895 704.895 160 706 160C707.105 160 708 160.895 708 162Z" fill="#BABEC8"/>
<path d="M740 162C740 163.105 739.105 164 738 164C736.895 164 736 163.105 736 162C736 160.895 736.895 160 738 160C739.105 160 740 160.895 740 162Z" fill="#BABEC8"/>
<path d="M772 162C772 163.105 771.105 164 770 164C768.895 164 768 163.105 768 162C768 160.895 768.895 160 770 160C771.105 160 772 160.895 772 162Z" fill="#BABEC8"/>
<path d="M804 162C804 163.105 803.105 164 802 164C800.895 164 800 163.105 800 162C800 160.895 800.895 160 802 160C803.105 160 804 160.895 804 162Z" fill="#BABEC8"/>
<path d="M836 162C836 163.105 835.105 164 834 164C832.895 164 832 163.105 832 162C832 160.895 832.895 160 834 160C835.105 160 836 160.895 836 162Z" fill="#BABEC8"/>
<path d="M868 162C868 163.105 867.105 164 866 164C864.895 164 864 163.105 864 162C864 160.895 864.895 160 866 160C867.105 160 868 160.895 868 162Z" fill="#BABEC8"/>
<path d="M644 194C644 195.105 643.105 196 642 196C640.895 196 640 195.105 640 194C640 192.895 640.895 192 642 192C643.105 192 644 192.895 644 194Z" fill="#BABEC8"/>
<path d="M676 194C676 195.105 675.105 196 674 196C672.895 196 672 195.105 672 194C672 192.895 672.895 192 674 192C675.105 192 676 192.895 676 194Z" fill="#BABEC8"/>
<path d="M708 194C708 195.105 707.105 196 706 196C704.895 196 704 195.105 704 194C704 192.895 704.895 192 706 192C707.105 192 708 192.895 708 194Z" fill="#BABEC8"/>
<path d="M740 194C740 195.105 739.105 196 738 196C736.895 196 736 195.105 736 194C736 192.895 736.895 192 738 192C739.105 192 740 192.895 740 194Z" fill="#BABEC8"/>
<path d="M772 194C772 195.105 771.105 196 770 196C768.895 196 768 195.105 768 194C768 192.895 768.895 192 770 192C771.105 192 772 192.895 772 194Z" fill="#BABEC8"/>
<path d="M804 194C804 195.105 803.105 196 802 196C800.895 196 800 195.105 800 194C800 192.895 800.895 192 802 192C803.105 192 804 192.895 804 194Z" fill="#BABEC8"/>
<path d="M836 194C836 195.105 835.105 196 834 196C832.895 196 832 195.105 832 194C832 192.895 832.895 192 834 192C835.105 192 836 192.895 836 194Z" fill="#BABEC8"/>
<path d="M868 194C868 195.105 867.105 196 866 196C864.895 196 864 195.105 864 194C864 192.895 864.895 192 866 192C867.105 192 868 192.895 868 194Z" fill="#BABEC8"/>
<path d="M644 226C644 227.105 643.105 228 642 228C640.895 228 640 227.105 640 226C640 224.895 640.895 224 642 224C643.105 224 644 224.895 644 226Z" fill="#BABEC8"/>
<path d="M676 226C676 227.105 675.105 228 674 228C672.895 228 672 227.105 672 226C672 224.895 672.895 224 674 224C675.105 224 676 224.895 676 226Z" fill="#BABEC8"/>
<path d="M708 226C708 227.105 707.105 228 706 228C704.895 228 704 227.105 704 226C704 224.895 704.895 224 706 224C707.105 224 708 224.895 708 226Z" fill="#BABEC8"/>
<path d="M740 226C740 227.105 739.105 228 738 228C736.895 228 736 227.105 736 226C736 224.895 736.895 224 738 224C739.105 224 740 224.895 740 226Z" fill="#BABEC8"/>
<path d="M772 226C772 227.105 771.105 228 770 228C768.895 228 768 227.105 768 226C768 224.895 768.895 224 770 224C771.105 224 772 224.895 772 226Z" fill="#BABEC8"/>
<path d="M804 226C804 227.105 803.105 228 802 228C800.895 228 800 227.105 800 226C800 224.895 800.895 224 802 224C803.105 224 804 224.895 804 226Z" fill="#BABEC8"/>
<path d="M836 226C836 227.105 835.105 228 834 228C832.895 228 832 227.105 832 226C832 224.895 832.895 224 834 224C835.105 224 836 224.895 836 226Z" fill="#BABEC8"/>
<path d="M868 226C868 227.105 867.105 228 866 228C864.895 228 864 227.105 864 226C864 224.895 864.895 224 866 224C867.105 224 868 224.895 868 226Z" fill="#BABEC8"/>
</svg>
