<?xml version="1.0"?>
<svg xmlns="http://www.w3.org/2000/svg" xmlns:xlink="http://www.w3.org/1999/xlink" xmlns:svgjs="http://svgjs.com/svgjs" version="1.1" width="512" height="512" x="0" y="0" viewBox="0 0 369.408 369.408" style="enable-background:new 0 0 512 512" xml:space="preserve"><g>
<g xmlns="http://www.w3.org/2000/svg">
	<g>
		<g>
			<path d="M209.306,229.53c24.115,0,43.725-19.61,43.725-43.725c0-24.115-19.61-43.725-43.725-43.725     c-24.115,0-43.725,19.61-43.725,43.725C165.581,209.92,185.19,229.53,209.306,229.53z M209.306,159.488     c14.541,0,26.317,11.827,26.317,26.317c0,14.541-11.827,26.317-26.317,26.317c-14.541,0-26.317-11.827-26.317-26.317     S194.816,159.488,209.306,159.488z" fill="#ffffff" data-original="#000000"/>
			<path d="M237.824,242.739h-57.139c-31.898,0-57.856,25.907-57.856,57.702v53.555c0,8.653,6.758,15.411,15.411,15.411h141.875     c8.653,0,15.411-6.758,15.411-15.411v-53.504C295.578,268.646,269.67,242.739,237.824,242.739z M278.118,352.051h-16.026v-51.354     c0-3.942-3.226-7.168-7.168-7.168c-3.942,0-7.168,3.226-7.168,7.168v51.354h-77.363v-51.354c0-3.942-3.226-7.168-7.168-7.168     c-3.942,0-7.168,3.226-7.168,7.168v51.354h-15.77v-51.558c0-22.221,18.125-40.346,40.397-40.346h57.139     c22.221,0,40.294,18.074,40.294,40.294V352.051z" fill="#ffffff" data-original="#000000"/>
			<path d="M263.987,87.45c24.115,0,43.725-19.61,43.725-43.725C307.712,19.61,288.102,0,263.987,0     c-24.115,0-43.725,19.61-43.725,43.725C220.262,67.84,239.872,87.45,263.987,87.45z M263.987,17.408     c14.541,0,26.317,11.827,26.317,26.317c0,14.49-11.827,26.317-26.317,26.317c-14.541,0-26.317-11.827-26.317-26.317     C237.67,29.235,249.446,17.408,263.987,17.408z" fill="#ffffff" data-original="#000000"/>
			<path d="M333.261,117.555c-10.906-10.906-25.395-16.947-40.806-16.947h-58.061c-18.227,0-35.533,8.806-46.336,23.552     c-2.867,3.891-1.997,9.318,1.843,12.186c1.536,1.126,3.379,1.69,5.12,1.69c2.662,0,5.325-1.229,7.014-3.533     c7.526-10.291,19.61-16.435,32.307-16.435h58.163c10.752,0,20.838,4.198,28.467,11.827c7.629,7.629,11.827,17.766,11.827,28.467     v51.61h-16.026v-51.354c0-3.942-3.226-7.168-7.168-7.168c-3.942,0-7.168,3.226-7.168,7.168v51.354h-44.902     c-4.813,0-8.704,3.891-8.704,8.704s3.891,8.704,8.704,8.704h77.21c8.653,0,15.411-6.758,15.411-15.411v-53.606     c0.051,0,0.051,0,0.051,0C350.208,142.95,344.218,128.461,333.261,117.555z" fill="#ffffff" data-original="#000000"/>
			<path d="M105.626,145.818c24.115,0,43.725-19.61,43.725-43.725c0-24.115-19.61-43.725-43.725-43.725     c-24.115,0-43.725,19.61-43.725,43.725C61.901,126.208,81.51,145.818,105.626,145.818z M105.626,75.725     c14.541,0,26.317,11.827,26.317,26.317c0,14.541-11.827,26.317-26.317,26.317c-14.541,0-26.317-11.827-26.317-26.317     C79.309,87.552,91.136,75.725,105.626,75.725z" fill="#ffffff" data-original="#000000"/>
			<path d="M111.155,268.339H66.918v-51.405c0-3.942-3.226-7.168-7.168-7.168c-3.942,0-7.168,3.226-7.168,7.168v51.405H36.557     v-51.61c0-22.221,18.125-40.294,40.448-40.294l57.498,0.051c5.171,0,9.984,0.922,14.797,2.867c1.075,0.41,2.15,0.614,3.277,0.614     c3.43,0,6.707-2.048,8.09-5.427c1.792-4.454-0.358-9.523-4.813-11.315c-6.912-2.765-13.875-4.147-21.299-4.147l-57.498-0.051     c-31.898,0-57.856,25.907-57.856,57.702v53.555c0,8.653,6.758,15.411,15.411,15.411h76.544c4.813,0,8.704-3.891,8.704-8.704     C119.859,272.23,115.968,268.339,111.155,268.339z" fill="#ffffff" data-original="#000000"/>
		</g>
	</g>
</g>
<g xmlns="http://www.w3.org/2000/svg">
</g>
<g xmlns="http://www.w3.org/2000/svg">
</g>
<g xmlns="http://www.w3.org/2000/svg">
</g>
<g xmlns="http://www.w3.org/2000/svg">
</g>
<g xmlns="http://www.w3.org/2000/svg">
</g>
<g xmlns="http://www.w3.org/2000/svg">
</g>
<g xmlns="http://www.w3.org/2000/svg">
</g>
<g xmlns="http://www.w3.org/2000/svg">
</g>
<g xmlns="http://www.w3.org/2000/svg">
</g>
<g xmlns="http://www.w3.org/2000/svg">
</g>
<g xmlns="http://www.w3.org/2000/svg">
</g>
<g xmlns="http://www.w3.org/2000/svg">
</g>
<g xmlns="http://www.w3.org/2000/svg">
</g>
<g xmlns="http://www.w3.org/2000/svg">
</g>
<g xmlns="http://www.w3.org/2000/svg">
</g>
</g></svg>
