<svg width="19" height="19" viewBox="0 0 19 19" fill="none" xmlns="http://www.w3.org/2000/svg">
<path d="M4.04444 6.97078C4.86956 6.97078 5.66089 6.63879 6.24433 6.04784C6.82778 5.45689 7.15556 4.65539 7.15556 3.81966C6.99169 -0.360245 1.09657 -0.359053 0.933333 3.81968C0.93334 4.65541 1.26112 5.4569 1.84457 6.04784C2.42801 6.63879 3.21933 6.97078 4.04444 6.97078ZM1.86667 14.2184V17.3695C1.86667 17.6202 1.965 17.8606 2.14003 18.0379C2.31507 18.2152 2.55246 18.3148 2.8 18.3148H5.28889C5.53642 18.3148 5.77382 18.2152 5.94885 18.0379C6.12389 17.8606 6.22222 17.6202 6.22222 17.3695V11.3823L8.19263 12.9175C8.44772 13.1131 8.76548 13.2056 9.08415 13.1771C9.40283 13.1486 9.69967 13.0011 9.917 12.7633C10.1343 12.5255 10.2566 12.2144 10.2601 11.8904C10.2636 11.5664 10.148 11.2526 9.9359 11.0101L7.65205 8.43985C7.5937 8.37418 7.52237 8.32168 7.44269 8.28574C7.36302 8.2498 7.27677 8.23124 7.18954 8.23124H0.933333C0.685798 8.23124 0.448401 8.33084 0.273367 8.50812C0.0983331 8.68541 0 8.92586 0 9.17658V13.273C0 13.5238 0.0983331 13.7642 0.273367 13.9415C0.448401 14.1188 0.685798 14.2184 0.933333 14.2184L1.86667 14.2184ZM14.6222 6.97078C15.4473 6.97078 16.2387 6.63879 16.8221 6.04784C17.4056 5.45689 17.7333 4.65539 17.7333 3.81966C17.5695 -0.360245 11.6744 -0.359053 11.5111 3.81968C11.5111 4.65541 11.8389 5.4569 12.4223 6.04784C13.0058 6.63879 13.7971 6.97078 14.6222 6.97078ZM17.7333 8.23123H11.4769C11.3896 8.23113 11.3032 8.24959 11.2233 8.28541C11.1435 8.32123 11.0719 8.37363 11.0133 8.4392L9.75022 9.86036L10.3973 10.5883C10.6541 10.8783 10.8187 11.2399 10.8697 11.626C10.9208 12.0121 10.8559 12.4048 10.6836 12.7531L12.4444 11.3823V17.3695C12.4443 17.4937 12.4683 17.6167 12.5152 17.7314C12.562 17.8462 12.6307 17.9505 12.7174 18.0383C12.8041 18.1261 12.9071 18.1957 13.0204 18.2432C13.1337 18.2906 13.2552 18.315 13.3778 18.3148H15.8667C15.9893 18.315 16.1107 18.2906 16.224 18.2432C16.3373 18.1957 16.4403 18.1261 16.527 18.0383C16.6137 17.9505 16.6824 17.8462 16.7293 17.7314C16.7761 17.6167 16.8002 17.4937 16.8 17.3695V14.2184H17.7333C17.8559 14.2185 17.9774 14.1942 18.0907 14.1467C18.204 14.0993 18.307 14.0297 18.3937 13.9418C18.4804 13.854 18.5491 13.7497 18.596 13.635C18.6428 13.5202 18.6668 13.3972 18.6667 13.273V9.17656C18.6668 9.05237 18.6428 8.92937 18.596 8.8146C18.5491 8.69983 18.4804 8.59555 18.3937 8.50774C18.307 8.41992 18.204 8.3503 18.0907 8.30285C17.9774 8.2554 17.8559 8.23106 17.7333 8.23123Z" fill="white"/>
</svg>
