<svg width="18" height="17" viewBox="0 0 18 17" fill="none" xmlns="http://www.w3.org/2000/svg">
<path d="M9.12502 0.333313C7.45212 0.333313 5.81679 0.812279 4.42582 1.70964C3.03486 2.60701 1.95073 3.88247 1.31054 5.37473C0.670352 6.86699 0.502849 8.50904 0.829215 10.0932C1.15558 11.6774 1.96116 13.1326 3.14408 14.2747C4.327 15.4168 5.83413 16.1946 7.47488 16.5097C9.11564 16.8248 10.8163 16.6631 12.3619 16.045C13.9074 15.4269 15.2285 14.3801 16.1579 13.0371C17.0873 11.6941 17.5834 10.1152 17.5834 8.49998C17.5834 6.33404 16.6922 4.25682 15.106 2.72527C13.5197 1.19373 11.3683 0.333313 9.12502 0.333313ZM12.2008 9.2424H9.12502C8.92109 9.2424 8.7255 9.16418 8.5813 9.02495C8.4371 8.88572 8.35608 8.69688 8.35608 8.49998V4.04543C8.35608 3.84853 8.4371 3.65969 8.5813 3.52046C8.7255 3.38123 8.92109 3.30301 9.12502 3.30301C9.32896 3.30301 9.52454 3.38123 9.66874 3.52046C9.81295 3.65969 9.89396 3.84853 9.89396 4.04543V7.75755H12.2008C12.4047 7.75755 12.6003 7.83577 12.7445 7.97501C12.8887 8.11424 12.9697 8.30308 12.9697 8.49998C12.9697 8.69688 12.8887 8.88572 12.7445 9.02495C12.6003 9.16418 12.4047 9.2424 12.2008 9.2424Z" fill="white"/>
</svg>
